%TF.GenerationSoftware,KiCad,Pcbnew,9.0.2*%
%TF.CreationDate,2025-08-31T14:00:09+02:00*%
%TF.ProjectId,Machine _ Neige PCBWAY,4d616368-696e-4652-90e0-204e65696765,rev?*%
%TF.SameCoordinates,Original*%
%TF.FileFunction,Soldermask,Top*%
%TF.FilePolarity,Negative*%
%FSLAX46Y46*%
G04 Gerber Fmt 4.6, Leading zero omitted, Abs format (unit mm)*
G04 Created by KiCad (PCBNEW 9.0.2) date 2025-08-31 14:00:09*
%MOMM*%
%LPD*%
G01*
G04 APERTURE LIST*
G04 Aperture macros list*
%AMRoundRect*
0 Rectangle with rounded corners*
0 $1 Rounding radius*
0 $2 $3 $4 $5 $6 $7 $8 $9 X,Y pos of 4 corners*
0 Add a 4 corners polygon primitive as box body*
4,1,4,$2,$3,$4,$5,$6,$7,$8,$9,$2,$3,0*
0 Add four circle primitives for the rounded corners*
1,1,$1+$1,$2,$3*
1,1,$1+$1,$4,$5*
1,1,$1+$1,$6,$7*
1,1,$1+$1,$8,$9*
0 Add four rect primitives between the rounded corners*
20,1,$1+$1,$2,$3,$4,$5,0*
20,1,$1+$1,$4,$5,$6,$7,0*
20,1,$1+$1,$6,$7,$8,$9,0*
20,1,$1+$1,$8,$9,$2,$3,0*%
G04 Aperture macros list end*
%ADD10R,1.700000X1.700000*%
%ADD11C,1.700000*%
%ADD12RoundRect,0.101600X-0.754000X-0.754000X0.754000X-0.754000X0.754000X0.754000X-0.754000X0.754000X0*%
%ADD13C,1.711200*%
%ADD14RoundRect,0.101600X0.754000X0.754000X-0.754000X0.754000X-0.754000X-0.754000X0.754000X-0.754000X0*%
%ADD15RoundRect,0.102000X0.754000X-0.754000X0.754000X0.754000X-0.754000X0.754000X-0.754000X-0.754000X0*%
%ADD16C,1.712000*%
%ADD17C,1.600000*%
%ADD18R,1.600000X1.600000*%
%ADD19O,1.600000X1.600000*%
G04 APERTURE END LIST*
D10*
%TO.C,DMX IN*%
X145034000Y-48768000D03*
D11*
X145034000Y-51308000D03*
X145034000Y-53848000D03*
%TD*%
D10*
%TO.C,J1*%
X149123000Y-65044000D03*
D11*
X149123000Y-67584000D03*
%TD*%
D10*
%TO.C,BP-G*%
X145796000Y-83820000D03*
D11*
X148336000Y-83820000D03*
%TD*%
D10*
%TO.C,BP-D*%
X134640000Y-83795000D03*
D11*
X137180000Y-83795000D03*
%TD*%
D12*
%TO.C,MAX485*%
X95680000Y-53810000D03*
D13*
X95680000Y-51270000D03*
X95680000Y-48730000D03*
X95680000Y-46190000D03*
D14*
X136320000Y-46190000D03*
D13*
X136320000Y-48730000D03*
X136320000Y-51270000D03*
X136320000Y-53810000D03*
%TD*%
D10*
%TO.C,LEDS*%
X128793000Y-93701000D03*
D11*
X131333000Y-93701000D03*
X133873000Y-93701000D03*
%TD*%
D10*
%TO.C,DMX OUT*%
X155956000Y-48768000D03*
D11*
X155956000Y-51308000D03*
X155956000Y-53848000D03*
%TD*%
D10*
%TO.C,BP-ENTER*%
X150622000Y-75946000D03*
D11*
X148082000Y-75946000D03*
%TD*%
D15*
%TO.C,U2*%
X120142000Y-113284000D03*
D16*
X122682000Y-113284000D03*
X125222000Y-113284000D03*
X127762000Y-113284000D03*
X130302000Y-113284000D03*
X132842000Y-113284000D03*
X135382000Y-113284000D03*
X137922000Y-113284000D03*
X120142000Y-100584000D03*
X122682000Y-100584000D03*
X125222000Y-100584000D03*
X127762000Y-100584000D03*
X130302000Y-100584000D03*
X132842000Y-100584000D03*
X135382000Y-100584000D03*
X137922000Y-100584000D03*
X137922000Y-105664000D03*
X137922000Y-103124000D03*
%TD*%
D17*
%TO.C,R10k*%
X142748000Y-92710000D03*
X150368000Y-92710000D03*
%TD*%
D18*
%TO.C,NANO*%
X95870500Y-65599500D03*
D19*
X95870500Y-68139500D03*
X95870500Y-70679500D03*
X95870500Y-73219500D03*
X95870500Y-75759500D03*
X95870500Y-78299500D03*
X95870500Y-80839500D03*
X95870500Y-83379500D03*
X95870500Y-85919500D03*
X95870500Y-88459500D03*
X95870500Y-90999500D03*
X95870500Y-93539500D03*
X95870500Y-96079500D03*
X95870500Y-98619500D03*
X95870500Y-101159500D03*
X111110500Y-101159500D03*
X111110500Y-98619500D03*
X111110500Y-96079500D03*
X111110500Y-93539500D03*
X111110500Y-90999500D03*
X111110500Y-88459500D03*
X111110500Y-85919500D03*
X111110500Y-83379500D03*
X111110500Y-80839500D03*
X111110500Y-78299500D03*
X111110500Y-75759500D03*
X111110500Y-73219500D03*
X111110500Y-70679500D03*
X111110500Y-68139500D03*
X111110500Y-65599500D03*
%TD*%
D10*
%TO.C,ECRAN*%
X127000000Y-83820000D03*
D11*
X124460000Y-83820000D03*
X121920000Y-83820000D03*
X119380000Y-83820000D03*
%TD*%
D10*
%TO.C,CAPTEUR*%
X147320000Y-101854000D03*
D11*
X147320000Y-99314000D03*
X147320000Y-96774000D03*
%TD*%
M02*
