%TF.GenerationSoftware,KiCad,Pcbnew,9.0.2*%
%TF.CreationDate,2025-08-31T14:00:08+02:00*%
%TF.ProjectId,Machine _ Neige PCBWAY,4d616368-696e-4652-90e0-204e65696765,rev?*%
%TF.SameCoordinates,Original*%
%TF.FileFunction,Plated,1,2,PTH,Drill*%
%TF.FilePolarity,Positive*%
%FSLAX46Y46*%
G04 Gerber Fmt 4.6, Leading zero omitted, Abs format (unit mm)*
G04 Created by KiCad (PCBNEW 9.0.2) date 2025-08-31 14:00:08*
%MOMM*%
%LPD*%
G01*
G04 APERTURE LIST*
%TA.AperFunction,ComponentDrill*%
%ADD10C,0.800000*%
%TD*%
%TA.AperFunction,ComponentDrill*%
%ADD11C,1.000000*%
%TD*%
G04 APERTURE END LIST*
D10*
%TO.C,12V>5V*%
X120777000Y-74866500D03*
X120802400Y-72326500D03*
X120904000Y-61404500D03*
X120904000Y-63944500D03*
X139700000Y-61531500D03*
X139700000Y-64071500D03*
X139700000Y-74866500D03*
X139725400Y-72326500D03*
%TO.C,R10k*%
X142748000Y-92710000D03*
X150368000Y-92710000D03*
D11*
%TO.C,MAX485*%
X95680000Y-46190000D03*
X95680000Y-48730000D03*
X95680000Y-51270000D03*
X95680000Y-53810000D03*
%TO.C,NANO*%
X95870500Y-65599500D03*
X95870500Y-68139500D03*
X95870500Y-70679500D03*
X95870500Y-73219500D03*
X95870500Y-75759500D03*
X95870500Y-78299500D03*
X95870500Y-80839500D03*
X95870500Y-83379500D03*
X95870500Y-85919500D03*
X95870500Y-88459500D03*
X95870500Y-90999500D03*
X95870500Y-93539500D03*
X95870500Y-96079500D03*
X95870500Y-98619500D03*
X95870500Y-101159500D03*
X111110500Y-65599500D03*
X111110500Y-68139500D03*
X111110500Y-70679500D03*
X111110500Y-73219500D03*
X111110500Y-75759500D03*
X111110500Y-78299500D03*
X111110500Y-80839500D03*
X111110500Y-83379500D03*
X111110500Y-85919500D03*
X111110500Y-88459500D03*
X111110500Y-90999500D03*
X111110500Y-93539500D03*
X111110500Y-96079500D03*
X111110500Y-98619500D03*
X111110500Y-101159500D03*
%TO.C,ECRAN*%
X119380000Y-83820000D03*
%TO.C,U2*%
X120142000Y-100584000D03*
X120142000Y-113284000D03*
%TO.C,ECRAN*%
X121920000Y-83820000D03*
%TO.C,U2*%
X122682000Y-100584000D03*
X122682000Y-113284000D03*
%TO.C,ECRAN*%
X124460000Y-83820000D03*
%TO.C,U2*%
X125222000Y-100584000D03*
X125222000Y-113284000D03*
%TO.C,ECRAN*%
X127000000Y-83820000D03*
%TO.C,U2*%
X127762000Y-100584000D03*
X127762000Y-113284000D03*
%TO.C,LEDS*%
X128793000Y-93701000D03*
%TO.C,U2*%
X130302000Y-100584000D03*
X130302000Y-113284000D03*
%TO.C,LEDS*%
X131333000Y-93701000D03*
%TO.C,U2*%
X132842000Y-100584000D03*
X132842000Y-113284000D03*
%TO.C,LEDS*%
X133873000Y-93701000D03*
%TO.C,BP-D*%
X134640000Y-83795000D03*
%TO.C,U2*%
X135382000Y-100584000D03*
X135382000Y-113284000D03*
%TO.C,MAX485*%
X136320000Y-46190000D03*
X136320000Y-48730000D03*
X136320000Y-51270000D03*
X136320000Y-53810000D03*
%TO.C,BP-D*%
X137180000Y-83795000D03*
%TO.C,U2*%
X137922000Y-100584000D03*
X137922000Y-103124000D03*
X137922000Y-105664000D03*
X137922000Y-113284000D03*
%TO.C,DMX IN*%
X145034000Y-48768000D03*
X145034000Y-51308000D03*
X145034000Y-53848000D03*
%TO.C,BP-G*%
X145796000Y-83820000D03*
%TO.C,CAPTEUR*%
X147320000Y-96774000D03*
X147320000Y-99314000D03*
X147320000Y-101854000D03*
%TO.C,BP-ENTER*%
X148082000Y-75946000D03*
%TO.C,BP-G*%
X148336000Y-83820000D03*
%TO.C,J1*%
X149123000Y-65044000D03*
X149123000Y-67584000D03*
%TO.C,BP-ENTER*%
X150622000Y-75946000D03*
%TO.C,DMX OUT*%
X155956000Y-48768000D03*
X155956000Y-51308000D03*
X155956000Y-53848000D03*
M02*
