%TF.GenerationSoftware,KiCad,Pcbnew,9.0.2*%
%TF.CreationDate,2025-08-31T14:00:09+02:00*%
%TF.ProjectId,Machine _ Neige PCBWAY,4d616368-696e-4652-90e0-204e65696765,rev?*%
%TF.SameCoordinates,Original*%
%TF.FileFunction,Legend,Top*%
%TF.FilePolarity,Positive*%
%FSLAX46Y46*%
G04 Gerber Fmt 4.6, Leading zero omitted, Abs format (unit mm)*
G04 Created by KiCad (PCBNEW 9.0.2) date 2025-08-31 14:00:09*
%MOMM*%
%LPD*%
G01*
G04 APERTURE LIST*
%ADD10C,0.300000*%
%ADD11C,0.150000*%
%ADD12C,0.101600*%
%ADD13C,0.120000*%
%ADD14C,0.100000*%
%ADD15C,0.127000*%
%ADD16C,0.200000*%
G04 APERTURE END LIST*
D10*
X147620510Y-53410828D02*
X148763368Y-53839400D01*
X148763368Y-53839400D02*
X147620510Y-54267971D01*
X150263368Y-54410828D02*
X149406225Y-54410828D01*
X149834796Y-54410828D02*
X149834796Y-52910828D01*
X149834796Y-52910828D02*
X149691939Y-53125114D01*
X149691939Y-53125114D02*
X149549082Y-53267971D01*
X149549082Y-53267971D02*
X149406225Y-53339400D01*
X147620510Y-48330828D02*
X148763368Y-48759400D01*
X148763368Y-48759400D02*
X147620510Y-49187971D01*
X149406225Y-47973685D02*
X149477653Y-47902257D01*
X149477653Y-47902257D02*
X149620511Y-47830828D01*
X149620511Y-47830828D02*
X149977653Y-47830828D01*
X149977653Y-47830828D02*
X150120511Y-47902257D01*
X150120511Y-47902257D02*
X150191939Y-47973685D01*
X150191939Y-47973685D02*
X150263368Y-48116542D01*
X150263368Y-48116542D02*
X150263368Y-48259400D01*
X150263368Y-48259400D02*
X150191939Y-48473685D01*
X150191939Y-48473685D02*
X149334796Y-49330828D01*
X149334796Y-49330828D02*
X150263368Y-49330828D01*
X147620510Y-50870828D02*
X148763368Y-51299400D01*
X148763368Y-51299400D02*
X147620510Y-51727971D01*
X149334796Y-50370828D02*
X150263368Y-50370828D01*
X150263368Y-50370828D02*
X149763368Y-50942257D01*
X149763368Y-50942257D02*
X149977653Y-50942257D01*
X149977653Y-50942257D02*
X150120511Y-51013685D01*
X150120511Y-51013685D02*
X150191939Y-51085114D01*
X150191939Y-51085114D02*
X150263368Y-51227971D01*
X150263368Y-51227971D02*
X150263368Y-51585114D01*
X150263368Y-51585114D02*
X150191939Y-51727971D01*
X150191939Y-51727971D02*
X150120511Y-51799400D01*
X150120511Y-51799400D02*
X149977653Y-51870828D01*
X149977653Y-51870828D02*
X149549082Y-51870828D01*
X149549082Y-51870828D02*
X149406225Y-51799400D01*
X149406225Y-51799400D02*
X149334796Y-51727971D01*
X151337489Y-99305400D02*
X150194632Y-99305400D01*
X150766060Y-99876828D02*
X150766060Y-98733971D01*
X151337489Y-101845400D02*
X150194632Y-101845400D01*
X127969489Y-79493400D02*
X126826632Y-79493400D01*
X150343082Y-97265400D02*
X150557368Y-97336828D01*
X150557368Y-97336828D02*
X150914510Y-97336828D01*
X150914510Y-97336828D02*
X151057368Y-97265400D01*
X151057368Y-97265400D02*
X151128796Y-97193971D01*
X151128796Y-97193971D02*
X151200225Y-97051114D01*
X151200225Y-97051114D02*
X151200225Y-96908257D01*
X151200225Y-96908257D02*
X151128796Y-96765400D01*
X151128796Y-96765400D02*
X151057368Y-96693971D01*
X151057368Y-96693971D02*
X150914510Y-96622542D01*
X150914510Y-96622542D02*
X150628796Y-96551114D01*
X150628796Y-96551114D02*
X150485939Y-96479685D01*
X150485939Y-96479685D02*
X150414510Y-96408257D01*
X150414510Y-96408257D02*
X150343082Y-96265400D01*
X150343082Y-96265400D02*
X150343082Y-96122542D01*
X150343082Y-96122542D02*
X150414510Y-95979685D01*
X150414510Y-95979685D02*
X150485939Y-95908257D01*
X150485939Y-95908257D02*
X150628796Y-95836828D01*
X150628796Y-95836828D02*
X150985939Y-95836828D01*
X150985939Y-95836828D02*
X151200225Y-95908257D01*
X124921489Y-79493400D02*
X123778632Y-79493400D01*
X124350060Y-80064828D02*
X124350060Y-78921971D01*
X153623489Y-64253400D02*
X152480632Y-64253400D01*
X153052060Y-64824828D02*
X153052060Y-63681971D01*
G36*
X127408625Y-39397361D02*
G01*
X127509232Y-39497968D01*
X127562411Y-39604327D01*
X127625367Y-39856148D01*
X127625367Y-40033507D01*
X127562411Y-40285328D01*
X127509232Y-40391688D01*
X127408626Y-40492294D01*
X127251024Y-40544828D01*
X127068224Y-40544828D01*
X127068224Y-39344828D01*
X127251027Y-39344828D01*
X127408625Y-39397361D01*
G37*
G36*
X118400800Y-39389535D02*
G01*
X118437804Y-39426539D01*
X118482510Y-39515951D01*
X118482510Y-39659418D01*
X118437803Y-39748831D01*
X118400798Y-39785836D01*
X118311386Y-39830542D01*
X117925367Y-39830542D01*
X117925367Y-39344828D01*
X118311386Y-39344828D01*
X118400800Y-39389535D01*
G37*
G36*
X130329371Y-39389535D02*
G01*
X130366375Y-39426539D01*
X130411081Y-39515951D01*
X130411081Y-39659418D01*
X130366374Y-39748831D01*
X130329369Y-39785836D01*
X130239957Y-39830542D01*
X129853938Y-39830542D01*
X129853938Y-39344828D01*
X130239957Y-39344828D01*
X130329371Y-39389535D01*
G37*
G36*
X119710112Y-40116257D02*
G01*
X119412053Y-40116257D01*
X119561082Y-39669169D01*
X119710112Y-40116257D01*
G37*
G36*
X124495826Y-40116257D02*
G01*
X124197767Y-40116257D01*
X124346796Y-39669169D01*
X124495826Y-40116257D01*
G37*
G36*
X128852969Y-40116257D02*
G01*
X128554910Y-40116257D01*
X128703939Y-39669169D01*
X128852969Y-40116257D01*
G37*
G36*
X132306320Y-41011495D02*
G01*
X116104440Y-41011495D01*
X116104440Y-39165564D01*
X116271107Y-39165564D01*
X116271107Y-39224092D01*
X116293505Y-39278164D01*
X116334889Y-39319548D01*
X116388961Y-39341946D01*
X116418225Y-39344828D01*
X116696796Y-39344828D01*
X116696796Y-40694828D01*
X116699678Y-40724092D01*
X116722076Y-40778164D01*
X116763460Y-40819548D01*
X116817532Y-40841946D01*
X116876060Y-40841946D01*
X116930132Y-40819548D01*
X116971516Y-40778164D01*
X116993914Y-40724092D01*
X116996796Y-40694828D01*
X116996796Y-39344828D01*
X117275368Y-39344828D01*
X117304632Y-39341946D01*
X117358704Y-39319548D01*
X117400088Y-39278164D01*
X117422486Y-39224092D01*
X117422486Y-39194828D01*
X117625367Y-39194828D01*
X117625367Y-40694828D01*
X117628249Y-40724092D01*
X117650647Y-40778164D01*
X117692031Y-40819548D01*
X117746103Y-40841946D01*
X117804631Y-40841946D01*
X117858703Y-40819548D01*
X117900087Y-40778164D01*
X117922485Y-40724092D01*
X117925367Y-40694828D01*
X117925367Y-40130542D01*
X118054412Y-40130542D01*
X118509625Y-40780847D01*
X118528768Y-40803169D01*
X118578125Y-40834622D01*
X118635761Y-40844793D01*
X118692903Y-40832134D01*
X118740851Y-40798570D01*
X118772304Y-40749213D01*
X118782475Y-40691577D01*
X118779039Y-40676067D01*
X118912260Y-40676067D01*
X118916409Y-40734448D01*
X118942583Y-40786795D01*
X118986797Y-40825142D01*
X119042321Y-40843650D01*
X119100702Y-40839501D01*
X119153049Y-40813327D01*
X119191396Y-40769113D01*
X119203384Y-40742262D01*
X119312053Y-40416257D01*
X119810112Y-40416257D01*
X119918780Y-40742262D01*
X119930768Y-40769113D01*
X119969115Y-40813328D01*
X120021463Y-40839501D01*
X120079843Y-40843651D01*
X120135367Y-40825142D01*
X120179581Y-40786795D01*
X120205755Y-40734448D01*
X120209905Y-40676068D01*
X120203385Y-40647394D01*
X119719195Y-39194828D01*
X120411081Y-39194828D01*
X120411081Y-40694828D01*
X120413963Y-40724092D01*
X120436361Y-40778164D01*
X120477745Y-40819548D01*
X120531817Y-40841946D01*
X120590345Y-40841946D01*
X120644417Y-40819548D01*
X120685801Y-40778164D01*
X120708199Y-40724092D01*
X120711081Y-40694828D01*
X120711081Y-40059114D01*
X121061081Y-40059114D01*
X121090345Y-40056232D01*
X121144417Y-40033834D01*
X121185801Y-39992450D01*
X121208199Y-39938378D01*
X121208199Y-39879850D01*
X121185801Y-39825778D01*
X121144417Y-39784394D01*
X121090345Y-39761996D01*
X121061081Y-39759114D01*
X120711081Y-39759114D01*
X120711081Y-39344828D01*
X121275367Y-39344828D01*
X121304631Y-39341946D01*
X121358703Y-39319548D01*
X121400087Y-39278164D01*
X121422485Y-39224092D01*
X121422485Y-39194828D01*
X121696795Y-39194828D01*
X121696795Y-40694828D01*
X121699677Y-40724092D01*
X121722075Y-40778164D01*
X121763459Y-40819548D01*
X121817531Y-40841946D01*
X121876059Y-40841946D01*
X121930131Y-40819548D01*
X121971515Y-40778164D01*
X121993913Y-40724092D01*
X121996795Y-40694828D01*
X121996795Y-39194828D01*
X122411081Y-39194828D01*
X122411081Y-40694828D01*
X122413963Y-40724092D01*
X122436361Y-40778164D01*
X122477745Y-40819548D01*
X122531817Y-40841946D01*
X122590345Y-40841946D01*
X122644417Y-40819548D01*
X122685801Y-40778164D01*
X122708199Y-40724092D01*
X122711081Y-40694828D01*
X122711081Y-40114103D01*
X122759137Y-40066046D01*
X123298224Y-40784828D01*
X123318088Y-40806510D01*
X123368450Y-40836329D01*
X123426387Y-40844606D01*
X123483084Y-40830081D01*
X123529906Y-40794964D01*
X123559725Y-40744603D01*
X123568002Y-40686665D01*
X123565287Y-40676067D01*
X123697974Y-40676067D01*
X123702123Y-40734448D01*
X123728297Y-40786795D01*
X123772511Y-40825142D01*
X123828035Y-40843650D01*
X123886416Y-40839501D01*
X123938763Y-40813327D01*
X123977110Y-40769113D01*
X123989098Y-40742262D01*
X124097767Y-40416257D01*
X124595826Y-40416257D01*
X124704494Y-40742262D01*
X124716482Y-40769113D01*
X124754829Y-40813328D01*
X124807177Y-40839501D01*
X124865557Y-40843651D01*
X124921081Y-40825142D01*
X124965295Y-40786795D01*
X124991469Y-40734448D01*
X124995619Y-40676068D01*
X124989099Y-40647394D01*
X124504909Y-39194828D01*
X125196795Y-39194828D01*
X125196795Y-40694828D01*
X125199677Y-40724092D01*
X125222075Y-40778164D01*
X125263459Y-40819548D01*
X125317531Y-40841946D01*
X125376059Y-40841946D01*
X125430131Y-40819548D01*
X125471515Y-40778164D01*
X125493913Y-40724092D01*
X125496795Y-40694828D01*
X125496795Y-39759661D01*
X126073702Y-40769249D01*
X126078079Y-40775416D01*
X126079218Y-40778164D01*
X126082017Y-40780963D01*
X126090723Y-40793227D01*
X126106496Y-40805442D01*
X126120602Y-40819548D01*
X126129435Y-40823206D01*
X126136997Y-40829063D01*
X126156245Y-40834312D01*
X126174674Y-40841946D01*
X126184236Y-40841946D01*
X126193461Y-40844462D01*
X126213252Y-40841946D01*
X126233202Y-40841946D01*
X126242035Y-40838286D01*
X126251521Y-40837081D01*
X126268843Y-40827182D01*
X126287274Y-40819548D01*
X126294034Y-40812787D01*
X126302337Y-40808043D01*
X126314550Y-40792271D01*
X126328658Y-40778164D01*
X126332317Y-40769328D01*
X126338172Y-40761769D01*
X126343420Y-40742524D01*
X126351056Y-40724092D01*
X126352529Y-40709127D01*
X126353572Y-40705306D01*
X126353196Y-40702354D01*
X126353938Y-40694828D01*
X126353938Y-39194828D01*
X126768224Y-39194828D01*
X126768224Y-40694828D01*
X126771106Y-40724092D01*
X126793504Y-40778164D01*
X126834888Y-40819548D01*
X126888960Y-40841946D01*
X126918224Y-40844828D01*
X127275367Y-40844828D01*
X127290172Y-40843369D01*
X127294127Y-40843651D01*
X127299328Y-40842468D01*
X127304631Y-40841946D01*
X127308288Y-40840430D01*
X127322801Y-40837131D01*
X127537087Y-40765703D01*
X127563938Y-40753715D01*
X127568009Y-40750183D01*
X127572989Y-40748121D01*
X127595719Y-40729466D01*
X127649118Y-40676067D01*
X128055117Y-40676067D01*
X128059266Y-40734448D01*
X128085440Y-40786795D01*
X128129654Y-40825142D01*
X128185178Y-40843650D01*
X128243559Y-40839501D01*
X128295906Y-40813327D01*
X128334253Y-40769113D01*
X128346241Y-40742262D01*
X128454910Y-40416257D01*
X128952969Y-40416257D01*
X129061637Y-40742262D01*
X129073625Y-40769113D01*
X129111972Y-40813328D01*
X129164320Y-40839501D01*
X129222700Y-40843651D01*
X129278224Y-40825142D01*
X129322438Y-40786795D01*
X129348612Y-40734448D01*
X129352762Y-40676068D01*
X129346242Y-40647394D01*
X128862052Y-39194828D01*
X129553938Y-39194828D01*
X129553938Y-40694828D01*
X129556820Y-40724092D01*
X129579218Y-40778164D01*
X129620602Y-40819548D01*
X129674674Y-40841946D01*
X129733202Y-40841946D01*
X129787274Y-40819548D01*
X129828658Y-40778164D01*
X129851056Y-40724092D01*
X129853938Y-40694828D01*
X129853938Y-40130542D01*
X129982983Y-40130542D01*
X130438196Y-40780847D01*
X130457339Y-40803169D01*
X130506696Y-40834622D01*
X130564332Y-40844793D01*
X130621474Y-40832134D01*
X130669422Y-40798570D01*
X130700875Y-40749213D01*
X130711046Y-40691577D01*
X130698387Y-40634435D01*
X130683966Y-40608809D01*
X130339014Y-40116020D01*
X130342449Y-40114706D01*
X130485306Y-40043278D01*
X130497899Y-40035350D01*
X130501559Y-40033835D01*
X130505678Y-40030453D01*
X130510192Y-40027613D01*
X130512788Y-40024619D01*
X130524290Y-40015180D01*
X130595719Y-39943751D01*
X130605160Y-39932246D01*
X130608152Y-39929652D01*
X130610990Y-39925142D01*
X130614374Y-39921020D01*
X130615890Y-39917358D01*
X130623817Y-39904767D01*
X130695245Y-39761909D01*
X130705755Y-39734446D01*
X130706136Y-39729070D01*
X130708199Y-39724092D01*
X130711081Y-39694828D01*
X130711081Y-39480542D01*
X130982510Y-39480542D01*
X130982510Y-39623400D01*
X130985392Y-39652664D01*
X130987454Y-39657642D01*
X130987836Y-39663018D01*
X130998346Y-39690482D01*
X131069774Y-39833339D01*
X131077702Y-39845934D01*
X131079218Y-39849593D01*
X131082597Y-39853710D01*
X131085439Y-39858225D01*
X131088433Y-39860821D01*
X131097873Y-39872324D01*
X131169302Y-39943752D01*
X131180802Y-39953190D01*
X131183399Y-39956184D01*
X131187911Y-39959024D01*
X131192032Y-39962406D01*
X131195691Y-39963921D01*
X131208285Y-39971849D01*
X131351141Y-40043278D01*
X131353283Y-40044097D01*
X131354153Y-40044742D01*
X131366424Y-40049126D01*
X131378605Y-40053787D01*
X131379685Y-40053863D01*
X131381844Y-40054635D01*
X131651582Y-40122069D01*
X131757941Y-40175248D01*
X131794945Y-40212253D01*
X131839653Y-40301667D01*
X131839653Y-40373703D01*
X131794945Y-40463117D01*
X131757942Y-40500121D01*
X131668529Y-40544828D01*
X131371139Y-40544828D01*
X131179944Y-40481097D01*
X131151270Y-40474577D01*
X131092890Y-40478727D01*
X131040543Y-40504901D01*
X131002195Y-40549115D01*
X130983687Y-40604640D01*
X130987837Y-40663020D01*
X131014011Y-40715367D01*
X131058225Y-40753715D01*
X131085076Y-40765703D01*
X131299362Y-40837131D01*
X131313874Y-40840430D01*
X131317532Y-40841946D01*
X131322834Y-40842468D01*
X131328036Y-40843651D01*
X131331990Y-40843369D01*
X131346796Y-40844828D01*
X131703938Y-40844828D01*
X131733202Y-40841946D01*
X131738180Y-40839883D01*
X131743556Y-40839502D01*
X131771019Y-40828992D01*
X131913878Y-40757564D01*
X131926472Y-40749635D01*
X131930132Y-40748120D01*
X131934252Y-40744738D01*
X131938763Y-40741899D01*
X131941357Y-40738907D01*
X131952863Y-40729465D01*
X132024291Y-40658036D01*
X132033729Y-40646535D01*
X132036723Y-40643939D01*
X132039563Y-40639426D01*
X132042945Y-40635306D01*
X132044460Y-40631646D01*
X132052388Y-40619053D01*
X132123817Y-40476197D01*
X132134326Y-40448733D01*
X132134707Y-40443358D01*
X132136771Y-40438378D01*
X132139653Y-40409114D01*
X132139653Y-40266257D01*
X132136771Y-40236993D01*
X132134707Y-40232012D01*
X132134326Y-40226638D01*
X132123817Y-40199174D01*
X132052388Y-40056318D01*
X132044460Y-40043724D01*
X132042945Y-40040065D01*
X132039563Y-40035944D01*
X132036723Y-40031432D01*
X132033729Y-40028835D01*
X132024291Y-40017335D01*
X131952863Y-39945906D01*
X131941360Y-39936466D01*
X131938764Y-39933472D01*
X131934249Y-39930630D01*
X131930132Y-39927251D01*
X131926473Y-39925735D01*
X131913878Y-39917807D01*
X131771020Y-39846378D01*
X131768879Y-39845558D01*
X131768009Y-39844914D01*
X131755753Y-39840535D01*
X131743557Y-39835868D01*
X131742473Y-39835791D01*
X131740318Y-39835021D01*
X131470580Y-39767586D01*
X131364220Y-39714406D01*
X131327215Y-39677401D01*
X131282510Y-39587990D01*
X131282510Y-39515951D01*
X131327215Y-39426540D01*
X131364220Y-39389535D01*
X131453634Y-39344828D01*
X131751027Y-39344828D01*
X131942218Y-39408559D01*
X131970892Y-39415079D01*
X132029272Y-39410930D01*
X132081619Y-39384756D01*
X132119967Y-39340542D01*
X132138475Y-39285018D01*
X132134326Y-39226638D01*
X132108152Y-39174290D01*
X132063938Y-39135943D01*
X132037087Y-39123954D01*
X131822801Y-39052526D01*
X131808293Y-39049227D01*
X131804631Y-39047710D01*
X131799322Y-39047187D01*
X131794128Y-39046006D01*
X131790178Y-39046286D01*
X131775367Y-39044828D01*
X131418224Y-39044828D01*
X131388960Y-39047710D01*
X131383979Y-39049773D01*
X131378605Y-39050155D01*
X131351141Y-39060664D01*
X131208285Y-39132093D01*
X131195691Y-39140020D01*
X131192032Y-39141536D01*
X131187911Y-39144917D01*
X131183399Y-39147758D01*
X131180802Y-39150751D01*
X131169302Y-39160190D01*
X131097873Y-39231618D01*
X131088433Y-39243120D01*
X131085439Y-39245717D01*
X131082597Y-39250231D01*
X131079218Y-39254349D01*
X131077702Y-39258007D01*
X131069774Y-39270603D01*
X130998346Y-39413460D01*
X130987836Y-39440924D01*
X130987454Y-39446299D01*
X130985392Y-39451278D01*
X130982510Y-39480542D01*
X130711081Y-39480542D01*
X130708199Y-39451278D01*
X130706136Y-39446299D01*
X130705755Y-39440924D01*
X130695245Y-39413461D01*
X130623817Y-39270603D01*
X130615888Y-39258008D01*
X130614373Y-39254349D01*
X130610991Y-39250228D01*
X130608152Y-39245718D01*
X130605160Y-39243123D01*
X130595718Y-39231618D01*
X130524289Y-39160190D01*
X130512789Y-39150752D01*
X130510192Y-39147758D01*
X130505675Y-39144915D01*
X130501558Y-39141536D01*
X130497901Y-39140021D01*
X130485306Y-39132093D01*
X130342449Y-39060664D01*
X130314986Y-39050155D01*
X130309611Y-39049773D01*
X130304631Y-39047710D01*
X130275367Y-39044828D01*
X129703938Y-39044828D01*
X129674674Y-39047710D01*
X129620602Y-39070108D01*
X129579218Y-39111492D01*
X129556820Y-39165564D01*
X129553938Y-39194828D01*
X128862052Y-39194828D01*
X128846241Y-39147394D01*
X128834253Y-39120543D01*
X128827230Y-39112446D01*
X128822438Y-39102861D01*
X128808229Y-39090537D01*
X128795906Y-39076329D01*
X128786320Y-39071536D01*
X128778224Y-39064514D01*
X128760380Y-39058565D01*
X128743559Y-39050155D01*
X128732870Y-39049395D01*
X128722700Y-39046005D01*
X128703934Y-39047338D01*
X128685178Y-39046006D01*
X128675010Y-39049395D01*
X128664320Y-39050155D01*
X128647496Y-39058566D01*
X128629654Y-39064514D01*
X128621559Y-39071534D01*
X128611972Y-39076328D01*
X128599646Y-39090539D01*
X128585440Y-39102861D01*
X128580647Y-39112445D01*
X128573625Y-39120543D01*
X128561637Y-39147394D01*
X128061637Y-40647394D01*
X128055117Y-40676067D01*
X127649118Y-40676067D01*
X127738576Y-40586608D01*
X127748014Y-40575106D01*
X127751009Y-40572510D01*
X127753849Y-40567996D01*
X127757231Y-40563877D01*
X127758746Y-40560217D01*
X127766674Y-40547624D01*
X127838103Y-40404768D01*
X127838922Y-40402625D01*
X127839567Y-40401756D01*
X127843951Y-40389484D01*
X127848612Y-40377304D01*
X127848688Y-40376223D01*
X127849460Y-40374065D01*
X127920888Y-40088351D01*
X127921637Y-40083279D01*
X127922485Y-40081235D01*
X127923570Y-40070212D01*
X127925190Y-40059262D01*
X127924864Y-40057074D01*
X127925367Y-40051971D01*
X127925367Y-39837685D01*
X127924864Y-39832581D01*
X127925190Y-39830394D01*
X127923570Y-39819443D01*
X127922485Y-39808421D01*
X127921637Y-39806376D01*
X127920888Y-39801305D01*
X127849460Y-39515591D01*
X127848688Y-39513432D01*
X127848612Y-39512352D01*
X127843951Y-39500171D01*
X127839567Y-39487900D01*
X127838922Y-39487030D01*
X127838103Y-39484888D01*
X127766674Y-39342032D01*
X127758747Y-39329440D01*
X127757231Y-39325778D01*
X127753847Y-39321655D01*
X127751009Y-39317146D01*
X127748016Y-39314550D01*
X127738576Y-39303048D01*
X127595719Y-39160191D01*
X127572988Y-39141536D01*
X127568008Y-39139473D01*
X127563938Y-39135943D01*
X127537087Y-39123954D01*
X127322801Y-39052526D01*
X127308293Y-39049227D01*
X127304631Y-39047710D01*
X127299322Y-39047187D01*
X127294128Y-39046006D01*
X127290178Y-39046286D01*
X127275367Y-39044828D01*
X126918224Y-39044828D01*
X126888960Y-39047710D01*
X126834888Y-39070108D01*
X126793504Y-39111492D01*
X126771106Y-39165564D01*
X126768224Y-39194828D01*
X126353938Y-39194828D01*
X126351056Y-39165564D01*
X126328658Y-39111492D01*
X126287274Y-39070108D01*
X126233202Y-39047710D01*
X126174674Y-39047710D01*
X126120602Y-39070108D01*
X126079218Y-39111492D01*
X126056820Y-39165564D01*
X126053938Y-39194828D01*
X126053938Y-40129992D01*
X125477031Y-39120407D01*
X125472653Y-39114239D01*
X125471515Y-39111492D01*
X125468715Y-39108692D01*
X125460010Y-39096429D01*
X125444238Y-39084215D01*
X125430131Y-39070108D01*
X125421295Y-39066448D01*
X125413736Y-39060594D01*
X125394491Y-39055345D01*
X125376059Y-39047710D01*
X125366497Y-39047710D01*
X125357272Y-39045194D01*
X125337481Y-39047710D01*
X125317531Y-39047710D01*
X125308697Y-39051369D01*
X125299212Y-39052575D01*
X125281889Y-39062473D01*
X125263459Y-39070108D01*
X125256698Y-39076868D01*
X125248396Y-39081613D01*
X125236182Y-39097384D01*
X125222075Y-39111492D01*
X125218415Y-39120327D01*
X125212561Y-39127887D01*
X125207312Y-39147131D01*
X125199677Y-39165564D01*
X125198203Y-39180530D01*
X125197161Y-39184351D01*
X125197536Y-39187302D01*
X125196795Y-39194828D01*
X124504909Y-39194828D01*
X124489098Y-39147394D01*
X124477110Y-39120543D01*
X124470087Y-39112446D01*
X124465295Y-39102861D01*
X124451086Y-39090537D01*
X124438763Y-39076329D01*
X124429177Y-39071536D01*
X124421081Y-39064514D01*
X124403237Y-39058565D01*
X124386416Y-39050155D01*
X124375727Y-39049395D01*
X124365557Y-39046005D01*
X124346791Y-39047338D01*
X124328035Y-39046006D01*
X124317867Y-39049395D01*
X124307177Y-39050155D01*
X124290353Y-39058566D01*
X124272511Y-39064514D01*
X124264416Y-39071534D01*
X124254829Y-39076328D01*
X124242503Y-39090539D01*
X124228297Y-39102861D01*
X124223504Y-39112445D01*
X124216482Y-39120543D01*
X124204494Y-39147394D01*
X123704494Y-40647394D01*
X123697974Y-40676067D01*
X123565287Y-40676067D01*
X123553477Y-40629969D01*
X123538224Y-40604828D01*
X122973423Y-39851760D01*
X123524290Y-39300894D01*
X123542945Y-39278164D01*
X123565342Y-39224091D01*
X123565342Y-39165565D01*
X123542945Y-39111493D01*
X123501559Y-39070107D01*
X123447487Y-39047710D01*
X123388961Y-39047710D01*
X123334888Y-39070107D01*
X123312158Y-39088762D01*
X122711081Y-39689839D01*
X122711081Y-39194828D01*
X122708199Y-39165564D01*
X122685801Y-39111492D01*
X122644417Y-39070108D01*
X122590345Y-39047710D01*
X122531817Y-39047710D01*
X122477745Y-39070108D01*
X122436361Y-39111492D01*
X122413963Y-39165564D01*
X122411081Y-39194828D01*
X121996795Y-39194828D01*
X121993913Y-39165564D01*
X121971515Y-39111492D01*
X121930131Y-39070108D01*
X121876059Y-39047710D01*
X121817531Y-39047710D01*
X121763459Y-39070108D01*
X121722075Y-39111492D01*
X121699677Y-39165564D01*
X121696795Y-39194828D01*
X121422485Y-39194828D01*
X121422485Y-39165564D01*
X121400087Y-39111492D01*
X121358703Y-39070108D01*
X121304631Y-39047710D01*
X121275367Y-39044828D01*
X120561081Y-39044828D01*
X120531817Y-39047710D01*
X120477745Y-39070108D01*
X120436361Y-39111492D01*
X120413963Y-39165564D01*
X120411081Y-39194828D01*
X119719195Y-39194828D01*
X119703384Y-39147394D01*
X119691396Y-39120543D01*
X119684373Y-39112446D01*
X119679581Y-39102861D01*
X119665372Y-39090537D01*
X119653049Y-39076329D01*
X119643463Y-39071536D01*
X119635367Y-39064514D01*
X119617523Y-39058565D01*
X119600702Y-39050155D01*
X119590013Y-39049395D01*
X119579843Y-39046005D01*
X119561077Y-39047338D01*
X119542321Y-39046006D01*
X119532153Y-39049395D01*
X119521463Y-39050155D01*
X119504639Y-39058566D01*
X119486797Y-39064514D01*
X119478702Y-39071534D01*
X119469115Y-39076328D01*
X119456789Y-39090539D01*
X119442583Y-39102861D01*
X119437790Y-39112445D01*
X119430768Y-39120543D01*
X119418780Y-39147394D01*
X118918780Y-40647394D01*
X118912260Y-40676067D01*
X118779039Y-40676067D01*
X118769816Y-40634435D01*
X118755395Y-40608809D01*
X118410443Y-40116020D01*
X118413878Y-40114706D01*
X118556735Y-40043278D01*
X118569328Y-40035350D01*
X118572988Y-40033835D01*
X118577107Y-40030453D01*
X118581621Y-40027613D01*
X118584217Y-40024619D01*
X118595719Y-40015180D01*
X118667148Y-39943751D01*
X118676589Y-39932246D01*
X118679581Y-39929652D01*
X118682419Y-39925142D01*
X118685803Y-39921020D01*
X118687319Y-39917358D01*
X118695246Y-39904767D01*
X118766674Y-39761909D01*
X118777184Y-39734446D01*
X118777565Y-39729070D01*
X118779628Y-39724092D01*
X118782510Y-39694828D01*
X118782510Y-39480542D01*
X118779628Y-39451278D01*
X118777565Y-39446299D01*
X118777184Y-39440924D01*
X118766674Y-39413461D01*
X118695246Y-39270603D01*
X118687317Y-39258008D01*
X118685802Y-39254349D01*
X118682420Y-39250228D01*
X118679581Y-39245718D01*
X118676589Y-39243123D01*
X118667147Y-39231618D01*
X118595718Y-39160190D01*
X118584218Y-39150752D01*
X118581621Y-39147758D01*
X118577104Y-39144915D01*
X118572987Y-39141536D01*
X118569330Y-39140021D01*
X118556735Y-39132093D01*
X118413878Y-39060664D01*
X118386415Y-39050155D01*
X118381040Y-39049773D01*
X118376060Y-39047710D01*
X118346796Y-39044828D01*
X117775367Y-39044828D01*
X117746103Y-39047710D01*
X117692031Y-39070108D01*
X117650647Y-39111492D01*
X117628249Y-39165564D01*
X117625367Y-39194828D01*
X117422486Y-39194828D01*
X117422486Y-39165564D01*
X117400088Y-39111492D01*
X117358704Y-39070108D01*
X117304632Y-39047710D01*
X117275368Y-39044828D01*
X116418225Y-39044828D01*
X116388961Y-39047710D01*
X116334889Y-39070108D01*
X116293505Y-39111492D01*
X116271107Y-39165564D01*
X116104440Y-39165564D01*
X116104440Y-38878161D01*
X132306320Y-38878161D01*
X132306320Y-41011495D01*
G37*
X122665400Y-81304917D02*
X122736828Y-81090632D01*
X122736828Y-81090632D02*
X122736828Y-80733489D01*
X122736828Y-80733489D02*
X122665400Y-80590632D01*
X122665400Y-80590632D02*
X122593971Y-80519203D01*
X122593971Y-80519203D02*
X122451114Y-80447774D01*
X122451114Y-80447774D02*
X122308257Y-80447774D01*
X122308257Y-80447774D02*
X122165400Y-80519203D01*
X122165400Y-80519203D02*
X122093971Y-80590632D01*
X122093971Y-80590632D02*
X122022542Y-80733489D01*
X122022542Y-80733489D02*
X121951114Y-81019203D01*
X121951114Y-81019203D02*
X121879685Y-81162060D01*
X121879685Y-81162060D02*
X121808257Y-81233489D01*
X121808257Y-81233489D02*
X121665400Y-81304917D01*
X121665400Y-81304917D02*
X121522542Y-81304917D01*
X121522542Y-81304917D02*
X121379685Y-81233489D01*
X121379685Y-81233489D02*
X121308257Y-81162060D01*
X121308257Y-81162060D02*
X121236828Y-81019203D01*
X121236828Y-81019203D02*
X121236828Y-80662060D01*
X121236828Y-80662060D02*
X121308257Y-80447774D01*
X122593971Y-78947775D02*
X122665400Y-79019203D01*
X122665400Y-79019203D02*
X122736828Y-79233489D01*
X122736828Y-79233489D02*
X122736828Y-79376346D01*
X122736828Y-79376346D02*
X122665400Y-79590632D01*
X122665400Y-79590632D02*
X122522542Y-79733489D01*
X122522542Y-79733489D02*
X122379685Y-79804918D01*
X122379685Y-79804918D02*
X122093971Y-79876346D01*
X122093971Y-79876346D02*
X121879685Y-79876346D01*
X121879685Y-79876346D02*
X121593971Y-79804918D01*
X121593971Y-79804918D02*
X121451114Y-79733489D01*
X121451114Y-79733489D02*
X121308257Y-79590632D01*
X121308257Y-79590632D02*
X121236828Y-79376346D01*
X121236828Y-79376346D02*
X121236828Y-79233489D01*
X121236828Y-79233489D02*
X121308257Y-79019203D01*
X121308257Y-79019203D02*
X121379685Y-78947775D01*
X122736828Y-78304918D02*
X121236828Y-78304918D01*
X122736828Y-77447775D02*
X121879685Y-78090632D01*
X121236828Y-77447775D02*
X122093971Y-78304918D01*
X134827489Y-97019400D02*
X133684632Y-97019400D01*
X128919653Y-97590828D02*
X128419653Y-96876542D01*
X128062510Y-97590828D02*
X128062510Y-96090828D01*
X128062510Y-96090828D02*
X128633939Y-96090828D01*
X128633939Y-96090828D02*
X128776796Y-96162257D01*
X128776796Y-96162257D02*
X128848225Y-96233685D01*
X128848225Y-96233685D02*
X128919653Y-96376542D01*
X128919653Y-96376542D02*
X128919653Y-96590828D01*
X128919653Y-96590828D02*
X128848225Y-96733685D01*
X128848225Y-96733685D02*
X128776796Y-96805114D01*
X128776796Y-96805114D02*
X128633939Y-96876542D01*
X128633939Y-96876542D02*
X128062510Y-96876542D01*
X119617400Y-81341938D02*
X119688828Y-81127653D01*
X119688828Y-81127653D02*
X119688828Y-80770510D01*
X119688828Y-80770510D02*
X119617400Y-80627653D01*
X119617400Y-80627653D02*
X119545971Y-80556224D01*
X119545971Y-80556224D02*
X119403114Y-80484795D01*
X119403114Y-80484795D02*
X119260257Y-80484795D01*
X119260257Y-80484795D02*
X119117400Y-80556224D01*
X119117400Y-80556224D02*
X119045971Y-80627653D01*
X119045971Y-80627653D02*
X118974542Y-80770510D01*
X118974542Y-80770510D02*
X118903114Y-81056224D01*
X118903114Y-81056224D02*
X118831685Y-81199081D01*
X118831685Y-81199081D02*
X118760257Y-81270510D01*
X118760257Y-81270510D02*
X118617400Y-81341938D01*
X118617400Y-81341938D02*
X118474542Y-81341938D01*
X118474542Y-81341938D02*
X118331685Y-81270510D01*
X118331685Y-81270510D02*
X118260257Y-81199081D01*
X118260257Y-81199081D02*
X118188828Y-81056224D01*
X118188828Y-81056224D02*
X118188828Y-80699081D01*
X118188828Y-80699081D02*
X118260257Y-80484795D01*
X119688828Y-79841939D02*
X118188828Y-79841939D01*
X118188828Y-79841939D02*
X118188828Y-79484796D01*
X118188828Y-79484796D02*
X118260257Y-79270510D01*
X118260257Y-79270510D02*
X118403114Y-79127653D01*
X118403114Y-79127653D02*
X118545971Y-79056224D01*
X118545971Y-79056224D02*
X118831685Y-78984796D01*
X118831685Y-78984796D02*
X119045971Y-78984796D01*
X119045971Y-78984796D02*
X119331685Y-79056224D01*
X119331685Y-79056224D02*
X119474542Y-79127653D01*
X119474542Y-79127653D02*
X119617400Y-79270510D01*
X119617400Y-79270510D02*
X119688828Y-79484796D01*
X119688828Y-79484796D02*
X119688828Y-79841939D01*
X119260257Y-78413367D02*
X119260257Y-77699082D01*
X119688828Y-78556224D02*
X118188828Y-78056224D01*
X118188828Y-78056224D02*
X119688828Y-77556224D01*
X158288510Y-51632828D02*
X159431368Y-52061400D01*
X159431368Y-52061400D02*
X158288510Y-52489971D01*
X160002796Y-51132828D02*
X160931368Y-51132828D01*
X160931368Y-51132828D02*
X160431368Y-51704257D01*
X160431368Y-51704257D02*
X160645653Y-51704257D01*
X160645653Y-51704257D02*
X160788511Y-51775685D01*
X160788511Y-51775685D02*
X160859939Y-51847114D01*
X160859939Y-51847114D02*
X160931368Y-51989971D01*
X160931368Y-51989971D02*
X160931368Y-52347114D01*
X160931368Y-52347114D02*
X160859939Y-52489971D01*
X160859939Y-52489971D02*
X160788511Y-52561400D01*
X160788511Y-52561400D02*
X160645653Y-52632828D01*
X160645653Y-52632828D02*
X160217082Y-52632828D01*
X160217082Y-52632828D02*
X160074225Y-52561400D01*
X160074225Y-52561400D02*
X160002796Y-52489971D01*
X158288510Y-54172828D02*
X159431368Y-54601400D01*
X159431368Y-54601400D02*
X158288510Y-55029971D01*
X160931368Y-55172828D02*
X160074225Y-55172828D01*
X160502796Y-55172828D02*
X160502796Y-53672828D01*
X160502796Y-53672828D02*
X160359939Y-53887114D01*
X160359939Y-53887114D02*
X160217082Y-54029971D01*
X160217082Y-54029971D02*
X160074225Y-54101400D01*
X152700510Y-68063400D02*
X153843368Y-68063400D01*
X158288510Y-49092828D02*
X159431368Y-49521400D01*
X159431368Y-49521400D02*
X158288510Y-49949971D01*
X160074225Y-48735685D02*
X160145653Y-48664257D01*
X160145653Y-48664257D02*
X160288511Y-48592828D01*
X160288511Y-48592828D02*
X160645653Y-48592828D01*
X160645653Y-48592828D02*
X160788511Y-48664257D01*
X160788511Y-48664257D02*
X160859939Y-48735685D01*
X160859939Y-48735685D02*
X160931368Y-48878542D01*
X160931368Y-48878542D02*
X160931368Y-49021400D01*
X160931368Y-49021400D02*
X160859939Y-49235685D01*
X160859939Y-49235685D02*
X160002796Y-50092828D01*
X160002796Y-50092828D02*
X160931368Y-50092828D01*
X131896225Y-96162257D02*
X131753368Y-96090828D01*
X131753368Y-96090828D02*
X131539082Y-96090828D01*
X131539082Y-96090828D02*
X131324796Y-96162257D01*
X131324796Y-96162257D02*
X131181939Y-96305114D01*
X131181939Y-96305114D02*
X131110510Y-96447971D01*
X131110510Y-96447971D02*
X131039082Y-96733685D01*
X131039082Y-96733685D02*
X131039082Y-96947971D01*
X131039082Y-96947971D02*
X131110510Y-97233685D01*
X131110510Y-97233685D02*
X131181939Y-97376542D01*
X131181939Y-97376542D02*
X131324796Y-97519400D01*
X131324796Y-97519400D02*
X131539082Y-97590828D01*
X131539082Y-97590828D02*
X131681939Y-97590828D01*
X131681939Y-97590828D02*
X131896225Y-97519400D01*
X131896225Y-97519400D02*
X131967653Y-97447971D01*
X131967653Y-97447971D02*
X131967653Y-96947971D01*
X131967653Y-96947971D02*
X131681939Y-96947971D01*
D11*
X142581619Y-45666819D02*
X142581619Y-44666819D01*
X142581619Y-44666819D02*
X142819714Y-44666819D01*
X142819714Y-44666819D02*
X142962571Y-44714438D01*
X142962571Y-44714438D02*
X143057809Y-44809676D01*
X143057809Y-44809676D02*
X143105428Y-44904914D01*
X143105428Y-44904914D02*
X143153047Y-45095390D01*
X143153047Y-45095390D02*
X143153047Y-45238247D01*
X143153047Y-45238247D02*
X143105428Y-45428723D01*
X143105428Y-45428723D02*
X143057809Y-45523961D01*
X143057809Y-45523961D02*
X142962571Y-45619200D01*
X142962571Y-45619200D02*
X142819714Y-45666819D01*
X142819714Y-45666819D02*
X142581619Y-45666819D01*
X143581619Y-45666819D02*
X143581619Y-44666819D01*
X143581619Y-44666819D02*
X143914952Y-45381104D01*
X143914952Y-45381104D02*
X144248285Y-44666819D01*
X144248285Y-44666819D02*
X144248285Y-45666819D01*
X144629238Y-44666819D02*
X145295904Y-45666819D01*
X145295904Y-44666819D02*
X144629238Y-45666819D01*
X146438762Y-45666819D02*
X146438762Y-44666819D01*
X146914952Y-45666819D02*
X146914952Y-44666819D01*
X146914952Y-44666819D02*
X147486380Y-45666819D01*
X147486380Y-45666819D02*
X147486380Y-44666819D01*
X148789666Y-64498819D02*
X148789666Y-65213104D01*
X148789666Y-65213104D02*
X148742047Y-65355961D01*
X148742047Y-65355961D02*
X148646809Y-65451200D01*
X148646809Y-65451200D02*
X148503952Y-65498819D01*
X148503952Y-65498819D02*
X148408714Y-65498819D01*
X149789666Y-65498819D02*
X149218238Y-65498819D01*
X149503952Y-65498819D02*
X149503952Y-64498819D01*
X149503952Y-64498819D02*
X149408714Y-64641676D01*
X149408714Y-64641676D02*
X149313476Y-64736914D01*
X149313476Y-64736914D02*
X149218238Y-64784533D01*
X148986952Y-62684819D02*
X148415524Y-62684819D01*
X148701238Y-62684819D02*
X148701238Y-61684819D01*
X148701238Y-61684819D02*
X148606000Y-61827676D01*
X148606000Y-61827676D02*
X148510762Y-61922914D01*
X148510762Y-61922914D02*
X148415524Y-61970533D01*
X149367905Y-61780057D02*
X149415524Y-61732438D01*
X149415524Y-61732438D02*
X149510762Y-61684819D01*
X149510762Y-61684819D02*
X149748857Y-61684819D01*
X149748857Y-61684819D02*
X149844095Y-61732438D01*
X149844095Y-61732438D02*
X149891714Y-61780057D01*
X149891714Y-61780057D02*
X149939333Y-61875295D01*
X149939333Y-61875295D02*
X149939333Y-61970533D01*
X149939333Y-61970533D02*
X149891714Y-62113390D01*
X149891714Y-62113390D02*
X149320286Y-62684819D01*
X149320286Y-62684819D02*
X149939333Y-62684819D01*
X150225048Y-61684819D02*
X150558381Y-62684819D01*
X150558381Y-62684819D02*
X150891714Y-61684819D01*
X145772381Y-87053009D02*
X145915238Y-87100628D01*
X145915238Y-87100628D02*
X145962857Y-87148247D01*
X145962857Y-87148247D02*
X146010476Y-87243485D01*
X146010476Y-87243485D02*
X146010476Y-87386342D01*
X146010476Y-87386342D02*
X145962857Y-87481580D01*
X145962857Y-87481580D02*
X145915238Y-87529200D01*
X145915238Y-87529200D02*
X145820000Y-87576819D01*
X145820000Y-87576819D02*
X145439048Y-87576819D01*
X145439048Y-87576819D02*
X145439048Y-86576819D01*
X145439048Y-86576819D02*
X145772381Y-86576819D01*
X145772381Y-86576819D02*
X145867619Y-86624438D01*
X145867619Y-86624438D02*
X145915238Y-86672057D01*
X145915238Y-86672057D02*
X145962857Y-86767295D01*
X145962857Y-86767295D02*
X145962857Y-86862533D01*
X145962857Y-86862533D02*
X145915238Y-86957771D01*
X145915238Y-86957771D02*
X145867619Y-87005390D01*
X145867619Y-87005390D02*
X145772381Y-87053009D01*
X145772381Y-87053009D02*
X145439048Y-87053009D01*
X146439048Y-87576819D02*
X146439048Y-86576819D01*
X146439048Y-86576819D02*
X146820000Y-86576819D01*
X146820000Y-86576819D02*
X146915238Y-86624438D01*
X146915238Y-86624438D02*
X146962857Y-86672057D01*
X146962857Y-86672057D02*
X147010476Y-86767295D01*
X147010476Y-86767295D02*
X147010476Y-86910152D01*
X147010476Y-86910152D02*
X146962857Y-87005390D01*
X146962857Y-87005390D02*
X146915238Y-87053009D01*
X146915238Y-87053009D02*
X146820000Y-87100628D01*
X146820000Y-87100628D02*
X146439048Y-87100628D01*
X147439048Y-87195866D02*
X148200953Y-87195866D01*
X149200952Y-86624438D02*
X149105714Y-86576819D01*
X149105714Y-86576819D02*
X148962857Y-86576819D01*
X148962857Y-86576819D02*
X148820000Y-86624438D01*
X148820000Y-86624438D02*
X148724762Y-86719676D01*
X148724762Y-86719676D02*
X148677143Y-86814914D01*
X148677143Y-86814914D02*
X148629524Y-87005390D01*
X148629524Y-87005390D02*
X148629524Y-87148247D01*
X148629524Y-87148247D02*
X148677143Y-87338723D01*
X148677143Y-87338723D02*
X148724762Y-87433961D01*
X148724762Y-87433961D02*
X148820000Y-87529200D01*
X148820000Y-87529200D02*
X148962857Y-87576819D01*
X148962857Y-87576819D02*
X149058095Y-87576819D01*
X149058095Y-87576819D02*
X149200952Y-87529200D01*
X149200952Y-87529200D02*
X149248571Y-87481580D01*
X149248571Y-87481580D02*
X149248571Y-87148247D01*
X149248571Y-87148247D02*
X149058095Y-87148247D01*
X134342381Y-86799009D02*
X134485238Y-86846628D01*
X134485238Y-86846628D02*
X134532857Y-86894247D01*
X134532857Y-86894247D02*
X134580476Y-86989485D01*
X134580476Y-86989485D02*
X134580476Y-87132342D01*
X134580476Y-87132342D02*
X134532857Y-87227580D01*
X134532857Y-87227580D02*
X134485238Y-87275200D01*
X134485238Y-87275200D02*
X134390000Y-87322819D01*
X134390000Y-87322819D02*
X134009048Y-87322819D01*
X134009048Y-87322819D02*
X134009048Y-86322819D01*
X134009048Y-86322819D02*
X134342381Y-86322819D01*
X134342381Y-86322819D02*
X134437619Y-86370438D01*
X134437619Y-86370438D02*
X134485238Y-86418057D01*
X134485238Y-86418057D02*
X134532857Y-86513295D01*
X134532857Y-86513295D02*
X134532857Y-86608533D01*
X134532857Y-86608533D02*
X134485238Y-86703771D01*
X134485238Y-86703771D02*
X134437619Y-86751390D01*
X134437619Y-86751390D02*
X134342381Y-86799009D01*
X134342381Y-86799009D02*
X134009048Y-86799009D01*
X135009048Y-87322819D02*
X135009048Y-86322819D01*
X135009048Y-86322819D02*
X135390000Y-86322819D01*
X135390000Y-86322819D02*
X135485238Y-86370438D01*
X135485238Y-86370438D02*
X135532857Y-86418057D01*
X135532857Y-86418057D02*
X135580476Y-86513295D01*
X135580476Y-86513295D02*
X135580476Y-86656152D01*
X135580476Y-86656152D02*
X135532857Y-86751390D01*
X135532857Y-86751390D02*
X135485238Y-86799009D01*
X135485238Y-86799009D02*
X135390000Y-86846628D01*
X135390000Y-86846628D02*
X135009048Y-86846628D01*
X136009048Y-86941866D02*
X136770953Y-86941866D01*
X137247143Y-87322819D02*
X137247143Y-86322819D01*
X137247143Y-86322819D02*
X137485238Y-86322819D01*
X137485238Y-86322819D02*
X137628095Y-86370438D01*
X137628095Y-86370438D02*
X137723333Y-86465676D01*
X137723333Y-86465676D02*
X137770952Y-86560914D01*
X137770952Y-86560914D02*
X137818571Y-86751390D01*
X137818571Y-86751390D02*
X137818571Y-86894247D01*
X137818571Y-86894247D02*
X137770952Y-87084723D01*
X137770952Y-87084723D02*
X137723333Y-87179961D01*
X137723333Y-87179961D02*
X137628095Y-87275200D01*
X137628095Y-87275200D02*
X137485238Y-87322819D01*
X137485238Y-87322819D02*
X137247143Y-87322819D01*
X129175142Y-63446819D02*
X128603714Y-63446819D01*
X128889428Y-63446819D02*
X128889428Y-62446819D01*
X128889428Y-62446819D02*
X128794190Y-62589676D01*
X128794190Y-62589676D02*
X128698952Y-62684914D01*
X128698952Y-62684914D02*
X128603714Y-62732533D01*
X129556095Y-62542057D02*
X129603714Y-62494438D01*
X129603714Y-62494438D02*
X129698952Y-62446819D01*
X129698952Y-62446819D02*
X129937047Y-62446819D01*
X129937047Y-62446819D02*
X130032285Y-62494438D01*
X130032285Y-62494438D02*
X130079904Y-62542057D01*
X130079904Y-62542057D02*
X130127523Y-62637295D01*
X130127523Y-62637295D02*
X130127523Y-62732533D01*
X130127523Y-62732533D02*
X130079904Y-62875390D01*
X130079904Y-62875390D02*
X129508476Y-63446819D01*
X129508476Y-63446819D02*
X130127523Y-63446819D01*
X130413238Y-62446819D02*
X130746571Y-63446819D01*
X130746571Y-63446819D02*
X131079904Y-62446819D01*
X131413238Y-62780152D02*
X132175143Y-63065866D01*
X132175143Y-63065866D02*
X131413238Y-63351580D01*
X133127523Y-62446819D02*
X132651333Y-62446819D01*
X132651333Y-62446819D02*
X132603714Y-62923009D01*
X132603714Y-62923009D02*
X132651333Y-62875390D01*
X132651333Y-62875390D02*
X132746571Y-62827771D01*
X132746571Y-62827771D02*
X132984666Y-62827771D01*
X132984666Y-62827771D02*
X133079904Y-62875390D01*
X133079904Y-62875390D02*
X133127523Y-62923009D01*
X133127523Y-62923009D02*
X133175142Y-63018247D01*
X133175142Y-63018247D02*
X133175142Y-63256342D01*
X133175142Y-63256342D02*
X133127523Y-63351580D01*
X133127523Y-63351580D02*
X133079904Y-63399200D01*
X133079904Y-63399200D02*
X132984666Y-63446819D01*
X132984666Y-63446819D02*
X132746571Y-63446819D01*
X132746571Y-63446819D02*
X132651333Y-63399200D01*
X132651333Y-63399200D02*
X132603714Y-63351580D01*
X133460857Y-62446819D02*
X133794190Y-63446819D01*
X133794190Y-63446819D02*
X134127523Y-62446819D01*
X122631248Y-62849966D02*
X123393153Y-62849966D01*
X123012200Y-63230919D02*
X123012200Y-62469014D01*
X120511219Y-69770404D02*
X121511219Y-69437071D01*
X121511219Y-69437071D02*
X120511219Y-69103738D01*
X120511219Y-68579928D02*
X120511219Y-68389452D01*
X120511219Y-68389452D02*
X120558838Y-68294214D01*
X120558838Y-68294214D02*
X120654076Y-68198976D01*
X120654076Y-68198976D02*
X120844552Y-68151357D01*
X120844552Y-68151357D02*
X121177885Y-68151357D01*
X121177885Y-68151357D02*
X121368361Y-68198976D01*
X121368361Y-68198976D02*
X121463600Y-68294214D01*
X121463600Y-68294214D02*
X121511219Y-68389452D01*
X121511219Y-68389452D02*
X121511219Y-68579928D01*
X121511219Y-68579928D02*
X121463600Y-68675166D01*
X121463600Y-68675166D02*
X121368361Y-68770404D01*
X121368361Y-68770404D02*
X121177885Y-68818023D01*
X121177885Y-68818023D02*
X120844552Y-68818023D01*
X120844552Y-68818023D02*
X120654076Y-68770404D01*
X120654076Y-68770404D02*
X120558838Y-68675166D01*
X120558838Y-68675166D02*
X120511219Y-68579928D01*
X120511219Y-67722785D02*
X121320742Y-67722785D01*
X121320742Y-67722785D02*
X121415980Y-67675166D01*
X121415980Y-67675166D02*
X121463600Y-67627547D01*
X121463600Y-67627547D02*
X121511219Y-67532309D01*
X121511219Y-67532309D02*
X121511219Y-67341833D01*
X121511219Y-67341833D02*
X121463600Y-67246595D01*
X121463600Y-67246595D02*
X121415980Y-67198976D01*
X121415980Y-67198976D02*
X121320742Y-67151357D01*
X121320742Y-67151357D02*
X120511219Y-67151357D01*
X120511219Y-66818023D02*
X120511219Y-66246595D01*
X121511219Y-66532309D02*
X120511219Y-66532309D01*
X137261648Y-62824566D02*
X138023553Y-62824566D01*
X137642600Y-63205519D02*
X137642600Y-62443614D01*
X122732848Y-73644966D02*
X123494753Y-73644966D01*
X138580019Y-68913308D02*
X137580019Y-68913308D01*
X138580019Y-68437118D02*
X137580019Y-68437118D01*
X137580019Y-68437118D02*
X138580019Y-67865690D01*
X138580019Y-67865690D02*
X137580019Y-67865690D01*
X137312448Y-73492566D02*
X138074353Y-73492566D01*
D12*
X109914266Y-47603726D02*
X109914266Y-46435326D01*
X109914266Y-46435326D02*
X110303733Y-47269897D01*
X110303733Y-47269897D02*
X110693199Y-46435326D01*
X110693199Y-46435326D02*
X110693199Y-47603726D01*
X111193942Y-47269897D02*
X111750323Y-47269897D01*
X111082666Y-47603726D02*
X111472132Y-46435326D01*
X111472132Y-46435326D02*
X111861599Y-47603726D01*
X112139790Y-46435326D02*
X112918723Y-47603726D01*
X112918723Y-46435326D02*
X112139790Y-47603726D01*
X113864571Y-46824792D02*
X113864571Y-47603726D01*
X113586380Y-46379688D02*
X113308190Y-47214259D01*
X113308190Y-47214259D02*
X114031485Y-47214259D01*
X114643504Y-46936068D02*
X114532228Y-46880430D01*
X114532228Y-46880430D02*
X114476590Y-46824792D01*
X114476590Y-46824792D02*
X114420952Y-46713516D01*
X114420952Y-46713516D02*
X114420952Y-46657878D01*
X114420952Y-46657878D02*
X114476590Y-46546602D01*
X114476590Y-46546602D02*
X114532228Y-46490964D01*
X114532228Y-46490964D02*
X114643504Y-46435326D01*
X114643504Y-46435326D02*
X114866057Y-46435326D01*
X114866057Y-46435326D02*
X114977333Y-46490964D01*
X114977333Y-46490964D02*
X115032971Y-46546602D01*
X115032971Y-46546602D02*
X115088609Y-46657878D01*
X115088609Y-46657878D02*
X115088609Y-46713516D01*
X115088609Y-46713516D02*
X115032971Y-46824792D01*
X115032971Y-46824792D02*
X114977333Y-46880430D01*
X114977333Y-46880430D02*
X114866057Y-46936068D01*
X114866057Y-46936068D02*
X114643504Y-46936068D01*
X114643504Y-46936068D02*
X114532228Y-46991707D01*
X114532228Y-46991707D02*
X114476590Y-47047345D01*
X114476590Y-47047345D02*
X114420952Y-47158621D01*
X114420952Y-47158621D02*
X114420952Y-47381173D01*
X114420952Y-47381173D02*
X114476590Y-47492449D01*
X114476590Y-47492449D02*
X114532228Y-47548088D01*
X114532228Y-47548088D02*
X114643504Y-47603726D01*
X114643504Y-47603726D02*
X114866057Y-47603726D01*
X114866057Y-47603726D02*
X114977333Y-47548088D01*
X114977333Y-47548088D02*
X115032971Y-47492449D01*
X115032971Y-47492449D02*
X115088609Y-47381173D01*
X115088609Y-47381173D02*
X115088609Y-47158621D01*
X115088609Y-47158621D02*
X115032971Y-47047345D01*
X115032971Y-47047345D02*
X114977333Y-46991707D01*
X114977333Y-46991707D02*
X114866057Y-46936068D01*
X116145733Y-46435326D02*
X115589352Y-46435326D01*
X115589352Y-46435326D02*
X115533714Y-46991707D01*
X115533714Y-46991707D02*
X115589352Y-46936068D01*
X115589352Y-46936068D02*
X115700628Y-46880430D01*
X115700628Y-46880430D02*
X115978819Y-46880430D01*
X115978819Y-46880430D02*
X116090095Y-46936068D01*
X116090095Y-46936068D02*
X116145733Y-46991707D01*
X116145733Y-46991707D02*
X116201371Y-47102983D01*
X116201371Y-47102983D02*
X116201371Y-47381173D01*
X116201371Y-47381173D02*
X116145733Y-47492449D01*
X116145733Y-47492449D02*
X116090095Y-47548088D01*
X116090095Y-47548088D02*
X115978819Y-47603726D01*
X115978819Y-47603726D02*
X115700628Y-47603726D01*
X115700628Y-47603726D02*
X115589352Y-47548088D01*
X115589352Y-47548088D02*
X115533714Y-47492449D01*
D11*
X124102952Y-93164819D02*
X123626762Y-93164819D01*
X123626762Y-93164819D02*
X123626762Y-92164819D01*
X124436286Y-92641009D02*
X124769619Y-92641009D01*
X124912476Y-93164819D02*
X124436286Y-93164819D01*
X124436286Y-93164819D02*
X124436286Y-92164819D01*
X124436286Y-92164819D02*
X124912476Y-92164819D01*
X125341048Y-93164819D02*
X125341048Y-92164819D01*
X125341048Y-92164819D02*
X125579143Y-92164819D01*
X125579143Y-92164819D02*
X125722000Y-92212438D01*
X125722000Y-92212438D02*
X125817238Y-92307676D01*
X125817238Y-92307676D02*
X125864857Y-92402914D01*
X125864857Y-92402914D02*
X125912476Y-92593390D01*
X125912476Y-92593390D02*
X125912476Y-92736247D01*
X125912476Y-92736247D02*
X125864857Y-92926723D01*
X125864857Y-92926723D02*
X125817238Y-93021961D01*
X125817238Y-93021961D02*
X125722000Y-93117200D01*
X125722000Y-93117200D02*
X125579143Y-93164819D01*
X125579143Y-93164819D02*
X125341048Y-93164819D01*
X126293429Y-93117200D02*
X126436286Y-93164819D01*
X126436286Y-93164819D02*
X126674381Y-93164819D01*
X126674381Y-93164819D02*
X126769619Y-93117200D01*
X126769619Y-93117200D02*
X126817238Y-93069580D01*
X126817238Y-93069580D02*
X126864857Y-92974342D01*
X126864857Y-92974342D02*
X126864857Y-92879104D01*
X126864857Y-92879104D02*
X126817238Y-92783866D01*
X126817238Y-92783866D02*
X126769619Y-92736247D01*
X126769619Y-92736247D02*
X126674381Y-92688628D01*
X126674381Y-92688628D02*
X126483905Y-92641009D01*
X126483905Y-92641009D02*
X126388667Y-92593390D01*
X126388667Y-92593390D02*
X126341048Y-92545771D01*
X126341048Y-92545771D02*
X126293429Y-92450533D01*
X126293429Y-92450533D02*
X126293429Y-92355295D01*
X126293429Y-92355295D02*
X126341048Y-92260057D01*
X126341048Y-92260057D02*
X126388667Y-92212438D01*
X126388667Y-92212438D02*
X126483905Y-92164819D01*
X126483905Y-92164819D02*
X126722000Y-92164819D01*
X126722000Y-92164819D02*
X126864857Y-92212438D01*
X152836952Y-45666819D02*
X152836952Y-44666819D01*
X152836952Y-44666819D02*
X153075047Y-44666819D01*
X153075047Y-44666819D02*
X153217904Y-44714438D01*
X153217904Y-44714438D02*
X153313142Y-44809676D01*
X153313142Y-44809676D02*
X153360761Y-44904914D01*
X153360761Y-44904914D02*
X153408380Y-45095390D01*
X153408380Y-45095390D02*
X153408380Y-45238247D01*
X153408380Y-45238247D02*
X153360761Y-45428723D01*
X153360761Y-45428723D02*
X153313142Y-45523961D01*
X153313142Y-45523961D02*
X153217904Y-45619200D01*
X153217904Y-45619200D02*
X153075047Y-45666819D01*
X153075047Y-45666819D02*
X152836952Y-45666819D01*
X153836952Y-45666819D02*
X153836952Y-44666819D01*
X153836952Y-44666819D02*
X154170285Y-45381104D01*
X154170285Y-45381104D02*
X154503618Y-44666819D01*
X154503618Y-44666819D02*
X154503618Y-45666819D01*
X154884571Y-44666819D02*
X155551237Y-45666819D01*
X155551237Y-44666819D02*
X154884571Y-45666819D01*
X156884571Y-44666819D02*
X157075047Y-44666819D01*
X157075047Y-44666819D02*
X157170285Y-44714438D01*
X157170285Y-44714438D02*
X157265523Y-44809676D01*
X157265523Y-44809676D02*
X157313142Y-45000152D01*
X157313142Y-45000152D02*
X157313142Y-45333485D01*
X157313142Y-45333485D02*
X157265523Y-45523961D01*
X157265523Y-45523961D02*
X157170285Y-45619200D01*
X157170285Y-45619200D02*
X157075047Y-45666819D01*
X157075047Y-45666819D02*
X156884571Y-45666819D01*
X156884571Y-45666819D02*
X156789333Y-45619200D01*
X156789333Y-45619200D02*
X156694095Y-45523961D01*
X156694095Y-45523961D02*
X156646476Y-45333485D01*
X156646476Y-45333485D02*
X156646476Y-45000152D01*
X156646476Y-45000152D02*
X156694095Y-44809676D01*
X156694095Y-44809676D02*
X156789333Y-44714438D01*
X156789333Y-44714438D02*
X156884571Y-44666819D01*
X157741714Y-44666819D02*
X157741714Y-45476342D01*
X157741714Y-45476342D02*
X157789333Y-45571580D01*
X157789333Y-45571580D02*
X157836952Y-45619200D01*
X157836952Y-45619200D02*
X157932190Y-45666819D01*
X157932190Y-45666819D02*
X158122666Y-45666819D01*
X158122666Y-45666819D02*
X158217904Y-45619200D01*
X158217904Y-45619200D02*
X158265523Y-45571580D01*
X158265523Y-45571580D02*
X158313142Y-45476342D01*
X158313142Y-45476342D02*
X158313142Y-44666819D01*
X158646476Y-44666819D02*
X159217904Y-44666819D01*
X158932190Y-45666819D02*
X158932190Y-44666819D01*
X146502857Y-78925009D02*
X146645714Y-78972628D01*
X146645714Y-78972628D02*
X146693333Y-79020247D01*
X146693333Y-79020247D02*
X146740952Y-79115485D01*
X146740952Y-79115485D02*
X146740952Y-79258342D01*
X146740952Y-79258342D02*
X146693333Y-79353580D01*
X146693333Y-79353580D02*
X146645714Y-79401200D01*
X146645714Y-79401200D02*
X146550476Y-79448819D01*
X146550476Y-79448819D02*
X146169524Y-79448819D01*
X146169524Y-79448819D02*
X146169524Y-78448819D01*
X146169524Y-78448819D02*
X146502857Y-78448819D01*
X146502857Y-78448819D02*
X146598095Y-78496438D01*
X146598095Y-78496438D02*
X146645714Y-78544057D01*
X146645714Y-78544057D02*
X146693333Y-78639295D01*
X146693333Y-78639295D02*
X146693333Y-78734533D01*
X146693333Y-78734533D02*
X146645714Y-78829771D01*
X146645714Y-78829771D02*
X146598095Y-78877390D01*
X146598095Y-78877390D02*
X146502857Y-78925009D01*
X146502857Y-78925009D02*
X146169524Y-78925009D01*
X147169524Y-79448819D02*
X147169524Y-78448819D01*
X147169524Y-78448819D02*
X147550476Y-78448819D01*
X147550476Y-78448819D02*
X147645714Y-78496438D01*
X147645714Y-78496438D02*
X147693333Y-78544057D01*
X147693333Y-78544057D02*
X147740952Y-78639295D01*
X147740952Y-78639295D02*
X147740952Y-78782152D01*
X147740952Y-78782152D02*
X147693333Y-78877390D01*
X147693333Y-78877390D02*
X147645714Y-78925009D01*
X147645714Y-78925009D02*
X147550476Y-78972628D01*
X147550476Y-78972628D02*
X147169524Y-78972628D01*
X148169524Y-79067866D02*
X148931429Y-79067866D01*
X149407619Y-78925009D02*
X149740952Y-78925009D01*
X149883809Y-79448819D02*
X149407619Y-79448819D01*
X149407619Y-79448819D02*
X149407619Y-78448819D01*
X149407619Y-78448819D02*
X149883809Y-78448819D01*
X150312381Y-79448819D02*
X150312381Y-78448819D01*
X150312381Y-78448819D02*
X150883809Y-79448819D01*
X150883809Y-79448819D02*
X150883809Y-78448819D01*
X151217143Y-78448819D02*
X151788571Y-78448819D01*
X151502857Y-79448819D02*
X151502857Y-78448819D01*
X152121905Y-78925009D02*
X152455238Y-78925009D01*
X152598095Y-79448819D02*
X152121905Y-79448819D01*
X152121905Y-79448819D02*
X152121905Y-78448819D01*
X152121905Y-78448819D02*
X152598095Y-78448819D01*
X153598095Y-79448819D02*
X153264762Y-78972628D01*
X153026667Y-79448819D02*
X153026667Y-78448819D01*
X153026667Y-78448819D02*
X153407619Y-78448819D01*
X153407619Y-78448819D02*
X153502857Y-78496438D01*
X153502857Y-78496438D02*
X153550476Y-78544057D01*
X153550476Y-78544057D02*
X153598095Y-78639295D01*
X153598095Y-78639295D02*
X153598095Y-78782152D01*
X153598095Y-78782152D02*
X153550476Y-78877390D01*
X153550476Y-78877390D02*
X153502857Y-78925009D01*
X153502857Y-78925009D02*
X153407619Y-78972628D01*
X153407619Y-78972628D02*
X153026667Y-78972628D01*
X126024095Y-106896819D02*
X126595523Y-106896819D01*
X126309809Y-107896819D02*
X126309809Y-106896819D01*
X126928857Y-107896819D02*
X126928857Y-106896819D01*
X126928857Y-106896819D02*
X127262190Y-107611104D01*
X127262190Y-107611104D02*
X127595523Y-106896819D01*
X127595523Y-106896819D02*
X127595523Y-107896819D01*
X128643142Y-107801580D02*
X128595523Y-107849200D01*
X128595523Y-107849200D02*
X128452666Y-107896819D01*
X128452666Y-107896819D02*
X128357428Y-107896819D01*
X128357428Y-107896819D02*
X128214571Y-107849200D01*
X128214571Y-107849200D02*
X128119333Y-107753961D01*
X128119333Y-107753961D02*
X128071714Y-107658723D01*
X128071714Y-107658723D02*
X128024095Y-107468247D01*
X128024095Y-107468247D02*
X128024095Y-107325390D01*
X128024095Y-107325390D02*
X128071714Y-107134914D01*
X128071714Y-107134914D02*
X128119333Y-107039676D01*
X128119333Y-107039676D02*
X128214571Y-106944438D01*
X128214571Y-106944438D02*
X128357428Y-106896819D01*
X128357428Y-106896819D02*
X128452666Y-106896819D01*
X128452666Y-106896819D02*
X128595523Y-106944438D01*
X128595523Y-106944438D02*
X128643142Y-106992057D01*
X129024095Y-106992057D02*
X129071714Y-106944438D01*
X129071714Y-106944438D02*
X129166952Y-106896819D01*
X129166952Y-106896819D02*
X129405047Y-106896819D01*
X129405047Y-106896819D02*
X129500285Y-106944438D01*
X129500285Y-106944438D02*
X129547904Y-106992057D01*
X129547904Y-106992057D02*
X129595523Y-107087295D01*
X129595523Y-107087295D02*
X129595523Y-107182533D01*
X129595523Y-107182533D02*
X129547904Y-107325390D01*
X129547904Y-107325390D02*
X128976476Y-107896819D01*
X128976476Y-107896819D02*
X129595523Y-107896819D01*
X129976476Y-106992057D02*
X130024095Y-106944438D01*
X130024095Y-106944438D02*
X130119333Y-106896819D01*
X130119333Y-106896819D02*
X130357428Y-106896819D01*
X130357428Y-106896819D02*
X130452666Y-106944438D01*
X130452666Y-106944438D02*
X130500285Y-106992057D01*
X130500285Y-106992057D02*
X130547904Y-107087295D01*
X130547904Y-107087295D02*
X130547904Y-107182533D01*
X130547904Y-107182533D02*
X130500285Y-107325390D01*
X130500285Y-107325390D02*
X129928857Y-107896819D01*
X129928857Y-107896819D02*
X130547904Y-107896819D01*
X131166952Y-106896819D02*
X131262190Y-106896819D01*
X131262190Y-106896819D02*
X131357428Y-106944438D01*
X131357428Y-106944438D02*
X131405047Y-106992057D01*
X131405047Y-106992057D02*
X131452666Y-107087295D01*
X131452666Y-107087295D02*
X131500285Y-107277771D01*
X131500285Y-107277771D02*
X131500285Y-107515866D01*
X131500285Y-107515866D02*
X131452666Y-107706342D01*
X131452666Y-107706342D02*
X131405047Y-107801580D01*
X131405047Y-107801580D02*
X131357428Y-107849200D01*
X131357428Y-107849200D02*
X131262190Y-107896819D01*
X131262190Y-107896819D02*
X131166952Y-107896819D01*
X131166952Y-107896819D02*
X131071714Y-107849200D01*
X131071714Y-107849200D02*
X131024095Y-107801580D01*
X131024095Y-107801580D02*
X130976476Y-107706342D01*
X130976476Y-107706342D02*
X130928857Y-107515866D01*
X130928857Y-107515866D02*
X130928857Y-107277771D01*
X130928857Y-107277771D02*
X130976476Y-107087295D01*
X130976476Y-107087295D02*
X131024095Y-106992057D01*
X131024095Y-106992057D02*
X131071714Y-106944438D01*
X131071714Y-106944438D02*
X131166952Y-106896819D01*
X131976476Y-107896819D02*
X132166952Y-107896819D01*
X132166952Y-107896819D02*
X132262190Y-107849200D01*
X132262190Y-107849200D02*
X132309809Y-107801580D01*
X132309809Y-107801580D02*
X132405047Y-107658723D01*
X132405047Y-107658723D02*
X132452666Y-107468247D01*
X132452666Y-107468247D02*
X132452666Y-107087295D01*
X132452666Y-107087295D02*
X132405047Y-106992057D01*
X132405047Y-106992057D02*
X132357428Y-106944438D01*
X132357428Y-106944438D02*
X132262190Y-106896819D01*
X132262190Y-106896819D02*
X132071714Y-106896819D01*
X132071714Y-106896819D02*
X131976476Y-106944438D01*
X131976476Y-106944438D02*
X131928857Y-106992057D01*
X131928857Y-106992057D02*
X131881238Y-107087295D01*
X131881238Y-107087295D02*
X131881238Y-107325390D01*
X131881238Y-107325390D02*
X131928857Y-107420628D01*
X131928857Y-107420628D02*
X131976476Y-107468247D01*
X131976476Y-107468247D02*
X132071714Y-107515866D01*
X132071714Y-107515866D02*
X132262190Y-107515866D01*
X132262190Y-107515866D02*
X132357428Y-107468247D01*
X132357428Y-107468247D02*
X132405047Y-107420628D01*
X132405047Y-107420628D02*
X132452666Y-107325390D01*
X145510380Y-93164819D02*
X145177047Y-92688628D01*
X144938952Y-93164819D02*
X144938952Y-92164819D01*
X144938952Y-92164819D02*
X145319904Y-92164819D01*
X145319904Y-92164819D02*
X145415142Y-92212438D01*
X145415142Y-92212438D02*
X145462761Y-92260057D01*
X145462761Y-92260057D02*
X145510380Y-92355295D01*
X145510380Y-92355295D02*
X145510380Y-92498152D01*
X145510380Y-92498152D02*
X145462761Y-92593390D01*
X145462761Y-92593390D02*
X145415142Y-92641009D01*
X145415142Y-92641009D02*
X145319904Y-92688628D01*
X145319904Y-92688628D02*
X144938952Y-92688628D01*
X146462761Y-93164819D02*
X145891333Y-93164819D01*
X146177047Y-93164819D02*
X146177047Y-92164819D01*
X146177047Y-92164819D02*
X146081809Y-92307676D01*
X146081809Y-92307676D02*
X145986571Y-92402914D01*
X145986571Y-92402914D02*
X145891333Y-92450533D01*
X147081809Y-92164819D02*
X147177047Y-92164819D01*
X147177047Y-92164819D02*
X147272285Y-92212438D01*
X147272285Y-92212438D02*
X147319904Y-92260057D01*
X147319904Y-92260057D02*
X147367523Y-92355295D01*
X147367523Y-92355295D02*
X147415142Y-92545771D01*
X147415142Y-92545771D02*
X147415142Y-92783866D01*
X147415142Y-92783866D02*
X147367523Y-92974342D01*
X147367523Y-92974342D02*
X147319904Y-93069580D01*
X147319904Y-93069580D02*
X147272285Y-93117200D01*
X147272285Y-93117200D02*
X147177047Y-93164819D01*
X147177047Y-93164819D02*
X147081809Y-93164819D01*
X147081809Y-93164819D02*
X146986571Y-93117200D01*
X146986571Y-93117200D02*
X146938952Y-93069580D01*
X146938952Y-93069580D02*
X146891333Y-92974342D01*
X146891333Y-92974342D02*
X146843714Y-92783866D01*
X146843714Y-92783866D02*
X146843714Y-92545771D01*
X146843714Y-92545771D02*
X146891333Y-92355295D01*
X146891333Y-92355295D02*
X146938952Y-92260057D01*
X146938952Y-92260057D02*
X146986571Y-92212438D01*
X146986571Y-92212438D02*
X147081809Y-92164819D01*
X147843714Y-93164819D02*
X147843714Y-92164819D01*
X147938952Y-92783866D02*
X148224666Y-93164819D01*
X148224666Y-92498152D02*
X147843714Y-92879104D01*
X101362095Y-77924819D02*
X101362095Y-76924819D01*
X101362095Y-76924819D02*
X101933523Y-77924819D01*
X101933523Y-77924819D02*
X101933523Y-76924819D01*
X102362095Y-77639104D02*
X102838285Y-77639104D01*
X102266857Y-77924819D02*
X102600190Y-76924819D01*
X102600190Y-76924819D02*
X102933523Y-77924819D01*
X103266857Y-77924819D02*
X103266857Y-76924819D01*
X103266857Y-76924819D02*
X103838285Y-77924819D01*
X103838285Y-77924819D02*
X103838285Y-76924819D01*
X104504952Y-76924819D02*
X104695428Y-76924819D01*
X104695428Y-76924819D02*
X104790666Y-76972438D01*
X104790666Y-76972438D02*
X104885904Y-77067676D01*
X104885904Y-77067676D02*
X104933523Y-77258152D01*
X104933523Y-77258152D02*
X104933523Y-77591485D01*
X104933523Y-77591485D02*
X104885904Y-77781961D01*
X104885904Y-77781961D02*
X104790666Y-77877200D01*
X104790666Y-77877200D02*
X104695428Y-77924819D01*
X104695428Y-77924819D02*
X104504952Y-77924819D01*
X104504952Y-77924819D02*
X104409714Y-77877200D01*
X104409714Y-77877200D02*
X104314476Y-77781961D01*
X104314476Y-77781961D02*
X104266857Y-77591485D01*
X104266857Y-77591485D02*
X104266857Y-77258152D01*
X104266857Y-77258152D02*
X104314476Y-77067676D01*
X104314476Y-77067676D02*
X104409714Y-76972438D01*
X104409714Y-76972438D02*
X104504952Y-76924819D01*
X102228595Y-100614319D02*
X102228595Y-101423842D01*
X102228595Y-101423842D02*
X102276214Y-101519080D01*
X102276214Y-101519080D02*
X102323833Y-101566700D01*
X102323833Y-101566700D02*
X102419071Y-101614319D01*
X102419071Y-101614319D02*
X102609547Y-101614319D01*
X102609547Y-101614319D02*
X102704785Y-101566700D01*
X102704785Y-101566700D02*
X102752404Y-101519080D01*
X102752404Y-101519080D02*
X102800023Y-101423842D01*
X102800023Y-101423842D02*
X102800023Y-100614319D01*
X103228595Y-101566700D02*
X103371452Y-101614319D01*
X103371452Y-101614319D02*
X103609547Y-101614319D01*
X103609547Y-101614319D02*
X103704785Y-101566700D01*
X103704785Y-101566700D02*
X103752404Y-101519080D01*
X103752404Y-101519080D02*
X103800023Y-101423842D01*
X103800023Y-101423842D02*
X103800023Y-101328604D01*
X103800023Y-101328604D02*
X103752404Y-101233366D01*
X103752404Y-101233366D02*
X103704785Y-101185747D01*
X103704785Y-101185747D02*
X103609547Y-101138128D01*
X103609547Y-101138128D02*
X103419071Y-101090509D01*
X103419071Y-101090509D02*
X103323833Y-101042890D01*
X103323833Y-101042890D02*
X103276214Y-100995271D01*
X103276214Y-100995271D02*
X103228595Y-100900033D01*
X103228595Y-100900033D02*
X103228595Y-100804795D01*
X103228595Y-100804795D02*
X103276214Y-100709557D01*
X103276214Y-100709557D02*
X103323833Y-100661938D01*
X103323833Y-100661938D02*
X103419071Y-100614319D01*
X103419071Y-100614319D02*
X103657166Y-100614319D01*
X103657166Y-100614319D02*
X103800023Y-100661938D01*
X104561928Y-101090509D02*
X104704785Y-101138128D01*
X104704785Y-101138128D02*
X104752404Y-101185747D01*
X104752404Y-101185747D02*
X104800023Y-101280985D01*
X104800023Y-101280985D02*
X104800023Y-101423842D01*
X104800023Y-101423842D02*
X104752404Y-101519080D01*
X104752404Y-101519080D02*
X104704785Y-101566700D01*
X104704785Y-101566700D02*
X104609547Y-101614319D01*
X104609547Y-101614319D02*
X104228595Y-101614319D01*
X104228595Y-101614319D02*
X104228595Y-100614319D01*
X104228595Y-100614319D02*
X104561928Y-100614319D01*
X104561928Y-100614319D02*
X104657166Y-100661938D01*
X104657166Y-100661938D02*
X104704785Y-100709557D01*
X104704785Y-100709557D02*
X104752404Y-100804795D01*
X104752404Y-100804795D02*
X104752404Y-100900033D01*
X104752404Y-100900033D02*
X104704785Y-100995271D01*
X104704785Y-100995271D02*
X104657166Y-101042890D01*
X104657166Y-101042890D02*
X104561928Y-101090509D01*
X104561928Y-101090509D02*
X104228595Y-101090509D01*
X120261333Y-86799009D02*
X120594666Y-86799009D01*
X120737523Y-87322819D02*
X120261333Y-87322819D01*
X120261333Y-87322819D02*
X120261333Y-86322819D01*
X120261333Y-86322819D02*
X120737523Y-86322819D01*
X121737523Y-87227580D02*
X121689904Y-87275200D01*
X121689904Y-87275200D02*
X121547047Y-87322819D01*
X121547047Y-87322819D02*
X121451809Y-87322819D01*
X121451809Y-87322819D02*
X121308952Y-87275200D01*
X121308952Y-87275200D02*
X121213714Y-87179961D01*
X121213714Y-87179961D02*
X121166095Y-87084723D01*
X121166095Y-87084723D02*
X121118476Y-86894247D01*
X121118476Y-86894247D02*
X121118476Y-86751390D01*
X121118476Y-86751390D02*
X121166095Y-86560914D01*
X121166095Y-86560914D02*
X121213714Y-86465676D01*
X121213714Y-86465676D02*
X121308952Y-86370438D01*
X121308952Y-86370438D02*
X121451809Y-86322819D01*
X121451809Y-86322819D02*
X121547047Y-86322819D01*
X121547047Y-86322819D02*
X121689904Y-86370438D01*
X121689904Y-86370438D02*
X121737523Y-86418057D01*
X122737523Y-87322819D02*
X122404190Y-86846628D01*
X122166095Y-87322819D02*
X122166095Y-86322819D01*
X122166095Y-86322819D02*
X122547047Y-86322819D01*
X122547047Y-86322819D02*
X122642285Y-86370438D01*
X122642285Y-86370438D02*
X122689904Y-86418057D01*
X122689904Y-86418057D02*
X122737523Y-86513295D01*
X122737523Y-86513295D02*
X122737523Y-86656152D01*
X122737523Y-86656152D02*
X122689904Y-86751390D01*
X122689904Y-86751390D02*
X122642285Y-86799009D01*
X122642285Y-86799009D02*
X122547047Y-86846628D01*
X122547047Y-86846628D02*
X122166095Y-86846628D01*
X123118476Y-87037104D02*
X123594666Y-87037104D01*
X123023238Y-87322819D02*
X123356571Y-86322819D01*
X123356571Y-86322819D02*
X123689904Y-87322819D01*
X124023238Y-87322819D02*
X124023238Y-86322819D01*
X124023238Y-86322819D02*
X124594666Y-87322819D01*
X124594666Y-87322819D02*
X124594666Y-86322819D01*
X144081809Y-105007580D02*
X144034190Y-105055200D01*
X144034190Y-105055200D02*
X143891333Y-105102819D01*
X143891333Y-105102819D02*
X143796095Y-105102819D01*
X143796095Y-105102819D02*
X143653238Y-105055200D01*
X143653238Y-105055200D02*
X143558000Y-104959961D01*
X143558000Y-104959961D02*
X143510381Y-104864723D01*
X143510381Y-104864723D02*
X143462762Y-104674247D01*
X143462762Y-104674247D02*
X143462762Y-104531390D01*
X143462762Y-104531390D02*
X143510381Y-104340914D01*
X143510381Y-104340914D02*
X143558000Y-104245676D01*
X143558000Y-104245676D02*
X143653238Y-104150438D01*
X143653238Y-104150438D02*
X143796095Y-104102819D01*
X143796095Y-104102819D02*
X143891333Y-104102819D01*
X143891333Y-104102819D02*
X144034190Y-104150438D01*
X144034190Y-104150438D02*
X144081809Y-104198057D01*
X144462762Y-104817104D02*
X144938952Y-104817104D01*
X144367524Y-105102819D02*
X144700857Y-104102819D01*
X144700857Y-104102819D02*
X145034190Y-105102819D01*
X145367524Y-105102819D02*
X145367524Y-104102819D01*
X145367524Y-104102819D02*
X145748476Y-104102819D01*
X145748476Y-104102819D02*
X145843714Y-104150438D01*
X145843714Y-104150438D02*
X145891333Y-104198057D01*
X145891333Y-104198057D02*
X145938952Y-104293295D01*
X145938952Y-104293295D02*
X145938952Y-104436152D01*
X145938952Y-104436152D02*
X145891333Y-104531390D01*
X145891333Y-104531390D02*
X145843714Y-104579009D01*
X145843714Y-104579009D02*
X145748476Y-104626628D01*
X145748476Y-104626628D02*
X145367524Y-104626628D01*
X146224667Y-104102819D02*
X146796095Y-104102819D01*
X146510381Y-105102819D02*
X146510381Y-104102819D01*
X147129429Y-104579009D02*
X147462762Y-104579009D01*
X147605619Y-105102819D02*
X147129429Y-105102819D01*
X147129429Y-105102819D02*
X147129429Y-104102819D01*
X147129429Y-104102819D02*
X147605619Y-104102819D01*
X148034191Y-104102819D02*
X148034191Y-104912342D01*
X148034191Y-104912342D02*
X148081810Y-105007580D01*
X148081810Y-105007580D02*
X148129429Y-105055200D01*
X148129429Y-105055200D02*
X148224667Y-105102819D01*
X148224667Y-105102819D02*
X148415143Y-105102819D01*
X148415143Y-105102819D02*
X148510381Y-105055200D01*
X148510381Y-105055200D02*
X148558000Y-105007580D01*
X148558000Y-105007580D02*
X148605619Y-104912342D01*
X148605619Y-104912342D02*
X148605619Y-104102819D01*
X149653238Y-105102819D02*
X149319905Y-104626628D01*
X149081810Y-105102819D02*
X149081810Y-104102819D01*
X149081810Y-104102819D02*
X149462762Y-104102819D01*
X149462762Y-104102819D02*
X149558000Y-104150438D01*
X149558000Y-104150438D02*
X149605619Y-104198057D01*
X149605619Y-104198057D02*
X149653238Y-104293295D01*
X149653238Y-104293295D02*
X149653238Y-104436152D01*
X149653238Y-104436152D02*
X149605619Y-104531390D01*
X149605619Y-104531390D02*
X149558000Y-104579009D01*
X149558000Y-104579009D02*
X149462762Y-104626628D01*
X149462762Y-104626628D02*
X149081810Y-104626628D01*
D13*
%TO.C,DMX IN*%
X143704000Y-50038000D02*
X143704000Y-55178000D01*
X143704000Y-50038000D02*
X146364000Y-50038000D01*
X143704000Y-55178000D02*
X146364000Y-55178000D01*
X145034000Y-47438000D02*
X146364000Y-47438000D01*
X146364000Y-47438000D02*
X146364000Y-48768000D01*
X146364000Y-50038000D02*
X146364000Y-55178000D01*
%TO.C,J1*%
X147793000Y-66314000D02*
X147793000Y-68914000D01*
X147793000Y-66314000D02*
X150453000Y-66314000D01*
X147793000Y-68914000D02*
X150453000Y-68914000D01*
X149123000Y-63714000D02*
X150453000Y-63714000D01*
X150453000Y-63714000D02*
X150453000Y-65044000D01*
X150453000Y-66314000D02*
X150453000Y-68914000D01*
%TO.C,BP-G*%
X144466000Y-82490000D02*
X145796000Y-82490000D01*
X144466000Y-83820000D02*
X144466000Y-82490000D01*
X147066000Y-82490000D02*
X149666000Y-82490000D01*
X147066000Y-85150000D02*
X147066000Y-82490000D01*
X147066000Y-85150000D02*
X149666000Y-85150000D01*
X149666000Y-85150000D02*
X149666000Y-82490000D01*
%TO.C,BP-D*%
X133310000Y-82465000D02*
X134640000Y-82465000D01*
X133310000Y-83795000D02*
X133310000Y-82465000D01*
X135910000Y-82465000D02*
X138510000Y-82465000D01*
X135910000Y-85125000D02*
X135910000Y-82465000D01*
X135910000Y-85125000D02*
X138510000Y-85125000D01*
X138510000Y-85125000D02*
X138510000Y-82465000D01*
%TO.C,12V>5V*%
X119380000Y-60007500D02*
X119380000Y-76136500D01*
X119380000Y-76136500D02*
X140716000Y-76136500D01*
X122529600Y-65443100D02*
X129184400Y-65443100D01*
X122529600Y-72097900D02*
X122529600Y-65443100D01*
X123710700Y-68922900D02*
X124980700Y-67843400D01*
X124980700Y-67843400D02*
X124980700Y-68605400D01*
X124980700Y-69240400D02*
X124980700Y-69938900D01*
X124980700Y-69938900D02*
X123710700Y-68922900D01*
X127609600Y-68605400D02*
X124980700Y-68605400D01*
X127609600Y-68605400D02*
X127609600Y-69240400D01*
X127609600Y-69240400D02*
X124980700Y-69240400D01*
X129184400Y-72097900D02*
X122529600Y-72097900D01*
X129184400Y-72097900D02*
X129184400Y-65443100D01*
X130860800Y-66052700D02*
X130860800Y-70523100D01*
X130860800Y-66052700D02*
X136956800Y-66052700D01*
X132410200Y-73139300D02*
X135839200Y-73139300D01*
X132410200Y-74409300D02*
X132410200Y-73139300D01*
X135839200Y-73139300D02*
X135839200Y-74409300D01*
X135839200Y-74409300D02*
X132410200Y-74409300D01*
X136956800Y-66052700D02*
X136956800Y-70523100D01*
X136956800Y-70523100D02*
X130860800Y-70523100D01*
X140716000Y-60007500D02*
X119380000Y-60007500D01*
X140716000Y-76136500D02*
X140716000Y-60007500D01*
X123776841Y-62852300D02*
G75*
G02*
X122247559Y-62852300I-764641J0D01*
G01*
X122247559Y-62852300D02*
G75*
G02*
X123776841Y-62852300I764641J0D01*
G01*
X123878441Y-73507600D02*
G75*
G02*
X122349159Y-73507600I-764641J0D01*
G01*
X122349159Y-73507600D02*
G75*
G02*
X123878441Y-73507600I764641J0D01*
G01*
X138407241Y-62826900D02*
G75*
G02*
X136877959Y-62826900I-764641J0D01*
G01*
X136877959Y-62826900D02*
G75*
G02*
X138407241Y-62826900I764641J0D01*
G01*
X138458041Y-73507600D02*
G75*
G02*
X136928759Y-73507600I-764641J0D01*
G01*
X136928759Y-73507600D02*
G75*
G02*
X138458041Y-73507600I764641J0D01*
G01*
D14*
X131775200Y-66001900D02*
X131368800Y-66001900D01*
X131368800Y-65392300D01*
X131775200Y-65392300D01*
X131775200Y-66001900D01*
G36*
X131775200Y-66001900D02*
G01*
X131368800Y-66001900D01*
X131368800Y-65392300D01*
X131775200Y-65392300D01*
X131775200Y-66001900D01*
G37*
X131775200Y-71183500D02*
X131368800Y-71183500D01*
X131368800Y-70573900D01*
X131775200Y-70573900D01*
X131775200Y-71183500D01*
G36*
X131775200Y-71183500D02*
G01*
X131368800Y-71183500D01*
X131368800Y-70573900D01*
X131775200Y-70573900D01*
X131775200Y-71183500D01*
G37*
X133299200Y-66001900D02*
X132892800Y-66001900D01*
X132892800Y-65392300D01*
X133299200Y-65392300D01*
X133299200Y-66001900D01*
G36*
X133299200Y-66001900D02*
G01*
X132892800Y-66001900D01*
X132892800Y-65392300D01*
X133299200Y-65392300D01*
X133299200Y-66001900D01*
G37*
X133299200Y-71183500D02*
X132892800Y-71183500D01*
X132892800Y-70573900D01*
X133299200Y-70573900D01*
X133299200Y-71183500D01*
G36*
X133299200Y-71183500D02*
G01*
X132892800Y-71183500D01*
X132892800Y-70573900D01*
X133299200Y-70573900D01*
X133299200Y-71183500D01*
G37*
X134772400Y-66001900D02*
X134366000Y-66001900D01*
X134366000Y-65392300D01*
X134772400Y-65392300D01*
X134772400Y-66001900D01*
G36*
X134772400Y-66001900D02*
G01*
X134366000Y-66001900D01*
X134366000Y-65392300D01*
X134772400Y-65392300D01*
X134772400Y-66001900D01*
G37*
X134772400Y-71183500D02*
X134366000Y-71183500D01*
X134366000Y-70573900D01*
X134772400Y-70573900D01*
X134772400Y-71183500D01*
G36*
X134772400Y-71183500D02*
G01*
X134366000Y-71183500D01*
X134366000Y-70573900D01*
X134772400Y-70573900D01*
X134772400Y-71183500D01*
G37*
X136245600Y-66001900D02*
X135839200Y-66001900D01*
X135839200Y-65392300D01*
X136245600Y-65392300D01*
X136245600Y-66001900D01*
G36*
X136245600Y-66001900D02*
G01*
X135839200Y-66001900D01*
X135839200Y-65392300D01*
X136245600Y-65392300D01*
X136245600Y-66001900D01*
G37*
X136245600Y-71183500D02*
X135839200Y-71183500D01*
X135839200Y-70573900D01*
X136245600Y-70573900D01*
X136245600Y-71183500D01*
G36*
X136245600Y-71183500D02*
G01*
X135839200Y-71183500D01*
X135839200Y-70573900D01*
X136245600Y-70573900D01*
X136245600Y-71183500D01*
G37*
D15*
%TO.C,MAX485*%
X94029000Y-42888000D02*
X137971000Y-42888000D01*
X94029000Y-57112000D02*
X94029000Y-42888000D01*
X94410000Y-45555000D02*
X95045000Y-44920000D01*
X94410000Y-46825000D02*
X94410000Y-45555000D01*
X94410000Y-48095000D02*
X95045000Y-47460000D01*
X94410000Y-49365000D02*
X94410000Y-48095000D01*
X94410000Y-50635000D02*
X95045000Y-50000000D01*
X94410000Y-51905000D02*
X94410000Y-50635000D01*
X94410000Y-53175000D02*
X95045000Y-52540000D01*
X94410000Y-54445000D02*
X94410000Y-53175000D01*
X95045000Y-44920000D02*
X96315000Y-44920000D01*
X95045000Y-47460000D02*
X94410000Y-46825000D01*
X95045000Y-50000000D02*
X94410000Y-49365000D01*
X95045000Y-52540000D02*
X94410000Y-51905000D01*
X95045000Y-55080000D02*
X94410000Y-54445000D01*
X96315000Y-44920000D02*
X96950000Y-45555000D01*
X96315000Y-47460000D02*
X96950000Y-48095000D01*
X96315000Y-50000000D02*
X96950000Y-50635000D01*
X96315000Y-52540000D02*
X96950000Y-53175000D01*
X96315000Y-55080000D02*
X95045000Y-55080000D01*
X96950000Y-45555000D02*
X96950000Y-46825000D01*
X96950000Y-46825000D02*
X96315000Y-47460000D01*
X96950000Y-48095000D02*
X96950000Y-49365000D01*
X96950000Y-49365000D02*
X96315000Y-50000000D01*
X96950000Y-50635000D02*
X96950000Y-51905000D01*
X96950000Y-51905000D02*
X96315000Y-52540000D01*
X96950000Y-53175000D02*
X96950000Y-54445000D01*
X96950000Y-54445000D02*
X96315000Y-55080000D01*
X124255000Y-44920000D02*
X125525000Y-44920000D01*
X124255000Y-50000000D02*
X124255000Y-44920000D01*
X124255000Y-50000000D02*
X131875000Y-50000000D01*
X124255000Y-55080000D02*
X124255000Y-50000000D01*
X125525000Y-44920000D02*
X131875000Y-44920000D01*
X125525000Y-55080000D02*
X124255000Y-55080000D01*
X125525000Y-55080000D02*
X125525000Y-44920000D01*
X128065000Y-48095000D02*
X129335000Y-46825000D01*
X128065000Y-53175000D02*
X129335000Y-51905000D01*
X131875000Y-44920000D02*
X131875000Y-50000000D01*
X131875000Y-50000000D02*
X131875000Y-55080000D01*
X131875000Y-55080000D02*
X125525000Y-55080000D01*
X135050000Y-45555000D02*
X135685000Y-44920000D01*
X135050000Y-46825000D02*
X135050000Y-45555000D01*
X135050000Y-48095000D02*
X135685000Y-47460000D01*
X135050000Y-49365000D02*
X135050000Y-48095000D01*
X135050000Y-50635000D02*
X135685000Y-50000000D01*
X135050000Y-51905000D02*
X135050000Y-50635000D01*
X135050000Y-53175000D02*
X135685000Y-52540000D01*
X135050000Y-54445000D02*
X135050000Y-53175000D01*
X135685000Y-44920000D02*
X136955000Y-44920000D01*
X135685000Y-47460000D02*
X135050000Y-46825000D01*
X135685000Y-50000000D02*
X135050000Y-49365000D01*
X135685000Y-52540000D02*
X135050000Y-51905000D01*
X135685000Y-55080000D02*
X135050000Y-54445000D01*
X136955000Y-44920000D02*
X137590000Y-45555000D01*
X136955000Y-47460000D02*
X137590000Y-48095000D01*
X136955000Y-50000000D02*
X137590000Y-50635000D01*
X136955000Y-52540000D02*
X137590000Y-53175000D01*
X136955000Y-55080000D02*
X135685000Y-55080000D01*
X137590000Y-45555000D02*
X137590000Y-46825000D01*
X137590000Y-46825000D02*
X136955000Y-47460000D01*
X137590000Y-48095000D02*
X137590000Y-49365000D01*
X137590000Y-49365000D02*
X136955000Y-50000000D01*
X137590000Y-50635000D02*
X137590000Y-51905000D01*
X137590000Y-51905000D02*
X136955000Y-52540000D01*
X137590000Y-53175000D02*
X137590000Y-54445000D01*
X137590000Y-54445000D02*
X136955000Y-55080000D01*
X137971000Y-42888000D02*
X137971000Y-57112000D01*
X137971000Y-57112000D02*
X94029000Y-57112000D01*
X125271000Y-47460000D02*
G75*
G02*
X124509000Y-47460000I-381000J0D01*
G01*
X124509000Y-47460000D02*
G75*
G02*
X125271000Y-47460000I381000J0D01*
G01*
X125271000Y-52540000D02*
G75*
G02*
X124509000Y-52540000I-381000J0D01*
G01*
X124509000Y-52540000D02*
G75*
G02*
X125271000Y-52540000I381000J0D01*
G01*
X129970000Y-47460000D02*
G75*
G02*
X127430000Y-47460000I-1270000J0D01*
G01*
X127430000Y-47460000D02*
G75*
G02*
X129970000Y-47460000I1270000J0D01*
G01*
X129970000Y-52540000D02*
G75*
G02*
X127430000Y-52540000I-1270000J0D01*
G01*
X127430000Y-52540000D02*
G75*
G02*
X129970000Y-52540000I1270000J0D01*
G01*
D13*
%TO.C,LEDS*%
X127463000Y-92371000D02*
X128793000Y-92371000D01*
X127463000Y-93701000D02*
X127463000Y-92371000D01*
X130063000Y-92371000D02*
X135203000Y-92371000D01*
X130063000Y-95031000D02*
X130063000Y-92371000D01*
X130063000Y-95031000D02*
X135203000Y-95031000D01*
X135203000Y-95031000D02*
X135203000Y-92371000D01*
%TO.C,DMX OUT*%
X154626000Y-50038000D02*
X154626000Y-55178000D01*
X154626000Y-50038000D02*
X157286000Y-50038000D01*
X154626000Y-55178000D02*
X157286000Y-55178000D01*
X155956000Y-47438000D02*
X157286000Y-47438000D01*
X157286000Y-47438000D02*
X157286000Y-48768000D01*
X157286000Y-50038000D02*
X157286000Y-55178000D01*
%TO.C,BP-ENTER*%
X146752000Y-74616000D02*
X146752000Y-77276000D01*
X149352000Y-74616000D02*
X146752000Y-74616000D01*
X149352000Y-74616000D02*
X149352000Y-77276000D01*
X149352000Y-77276000D02*
X146752000Y-77276000D01*
X151952000Y-75946000D02*
X151952000Y-77276000D01*
X151952000Y-77276000D02*
X150622000Y-77276000D01*
D15*
%TO.C,U2*%
X118872000Y-99314000D02*
X139192000Y-99314000D01*
X118872000Y-114554000D02*
X118872000Y-99314000D01*
X139192000Y-99314000D02*
X139192000Y-114554000D01*
X139192000Y-114554000D02*
X118872000Y-114554000D01*
D16*
X120242000Y-115134000D02*
G75*
G02*
X120042000Y-115134000I-100000J0D01*
G01*
X120042000Y-115134000D02*
G75*
G02*
X120242000Y-115134000I100000J0D01*
G01*
D13*
%TO.C,R10k*%
X143288000Y-91340000D02*
X149828000Y-91340000D01*
X143288000Y-91670000D02*
X143288000Y-91340000D01*
X143288000Y-93750000D02*
X143288000Y-94080000D01*
X143288000Y-94080000D02*
X149828000Y-94080000D01*
X149828000Y-91340000D02*
X149828000Y-91670000D01*
X149828000Y-94080000D02*
X149828000Y-93750000D01*
%TO.C,NANO*%
X94470500Y-61659500D02*
X94470500Y-64329500D01*
X94470500Y-66869500D02*
X94470500Y-105099500D01*
X94470500Y-105099500D02*
X99550500Y-105099500D01*
X97140500Y-64329500D02*
X94470500Y-64329500D01*
X97140500Y-66869500D02*
X94470500Y-66869500D01*
X97140500Y-66869500D02*
X97140500Y-64329500D01*
X97140500Y-66869500D02*
X97140500Y-102429500D01*
X97140500Y-102429500D02*
X94470500Y-102429500D01*
X99550500Y-97219500D02*
X107430500Y-97219500D01*
X99550500Y-107639500D02*
X99550500Y-97219500D01*
X107430500Y-97219500D02*
X107430500Y-107639500D01*
X107430500Y-107639500D02*
X99550500Y-107639500D01*
X109840500Y-64329500D02*
X109840500Y-102429500D01*
X109840500Y-64329500D02*
X112510500Y-64329500D01*
X109840500Y-102429500D02*
X112510500Y-102429500D01*
X112510500Y-61659500D02*
X94470500Y-61659500D01*
X112510500Y-105099500D02*
X107430500Y-105099500D01*
X112510500Y-105099500D02*
X112510500Y-61659500D01*
%TO.C,ECRAN*%
X118050000Y-82490000D02*
X118050000Y-85150000D01*
X125730000Y-82490000D02*
X118050000Y-82490000D01*
X125730000Y-82490000D02*
X125730000Y-85150000D01*
X125730000Y-85150000D02*
X118050000Y-85150000D01*
X128330000Y-83820000D02*
X128330000Y-85150000D01*
X128330000Y-85150000D02*
X127000000Y-85150000D01*
%TO.C,CAPTEUR*%
X145990000Y-100584000D02*
X145990000Y-95444000D01*
X145990000Y-103184000D02*
X145990000Y-101854000D01*
X147320000Y-103184000D02*
X145990000Y-103184000D01*
X148650000Y-95444000D02*
X145990000Y-95444000D01*
X148650000Y-100584000D02*
X145990000Y-100584000D01*
X148650000Y-100584000D02*
X148650000Y-95444000D01*
%TD*%
M02*
